<svg width="13" height="10" viewBox="0 0 13 10" fill="none" xmlns="http://www.w3.org/2000/svg">
<path d="M10.625 5.625C10.4479 5.625 10.2996 5.565 10.18 5.445C10.06 5.32542 10 5.17708 10 5V4.375H9.375C9.19792 4.375 9.04958 4.315 8.93 4.195C8.81 4.07542 8.75 3.92708 8.75 3.75C8.75 3.57292 8.81 3.42437 8.93 3.30437C9.04958 3.18479 9.19792 3.125 9.375 3.125H10V2.5C10 2.32292 10.06 2.17438 10.18 2.05438C10.2996 1.93479 10.4479 1.875 10.625 1.875C10.8021 1.875 10.9504 1.93479 11.07 2.05438C11.19 2.17438 11.25 2.32292 11.25 2.5V3.125H11.875C12.0521 3.125 12.2004 3.18479 12.32 3.30437C12.44 3.42437 12.5 3.57292 12.5 3.75C12.5 3.92708 12.44 4.07542 12.32 4.195C12.2004 4.315 12.0521 4.375 11.875 4.375H11.25V5C11.25 5.17708 11.19 5.32542 11.07 5.445C10.9504 5.565 10.8021 5.625 10.625 5.625ZM5 5C4.3125 5 3.72396 4.75521 3.23438 4.26562C2.74479 3.77604 2.5 3.1875 2.5 2.5C2.5 1.8125 2.74479 1.22396 3.23438 0.734375C3.72396 0.244792 4.3125 0 5 0C5.6875 0 6.27604 0.244792 6.76562 0.734375C7.25521 1.22396 7.5 1.8125 7.5 2.5C7.5 3.1875 7.25521 3.77604 6.76562 4.26562C6.27604 4.75521 5.6875 5 5 5ZM0.625 10C0.447917 10 0.299583 9.94 0.18 9.82C0.06 9.70042 0 9.55208 0 9.375V8.25C0 7.89583 0.09125 7.57021 0.27375 7.27313C0.455833 6.97646 0.697917 6.75 1 6.59375C1.64583 6.27083 2.30208 6.02854 2.96875 5.86688C3.63542 5.70563 4.3125 5.625 5 5.625C5.6875 5.625 6.36458 5.70563 7.03125 5.86688C7.69792 6.02854 8.35417 6.27083 9 6.59375C9.30208 6.75 9.54417 6.97646 9.72625 7.27313C9.90875 7.57021 10 7.89583 10 8.25V9.375C10 9.55208 9.94021 9.70042 9.82063 9.82C9.70063 9.94 9.55208 10 9.375 10H0.625Z" fill="#83878C"/>
</svg>
