<svg width="24" height="30" viewBox="0 0 24 30" fill="none" xmlns="http://www.w3.org/2000/svg">
<path d="M16.8 20C16.8 20.3315 16.6736 20.6495 16.4485 20.8839C16.2235 21.1183 15.9182 21.25 15.6 21.25H13.2V23.75C13.2 24.0815 13.0736 24.3995 12.8485 24.6339C12.6235 24.8683 12.3182 25 12 25C11.6817 25 11.3765 24.8683 11.1515 24.6339C10.9264 24.3995 10.8 24.0815 10.8 23.75V21.25H8.39999C8.08173 21.25 7.77651 21.1183 7.55146 20.8839C7.32642 20.6495 7.19999 20.3315 7.19999 20C7.19999 19.6685 7.32642 19.3505 7.55146 19.1161C7.77651 18.8817 8.08173 18.75 8.39999 18.75H10.8V16.25C10.8 15.9185 10.9264 15.6006 11.1515 15.3661C11.3765 15.1317 11.6817 15 12 15C12.3182 15 12.6235 15.1317 12.8485 15.3661C13.0736 15.6006 13.2 15.9185 13.2 16.25V18.75H15.6C15.9182 18.75 16.2235 18.8817 16.4485 19.1161C16.6736 19.3505 16.8 19.6685 16.8 20ZM24 13.1063V23.75C23.9981 25.407 23.3653 26.9956 22.2405 28.1672C21.1157 29.3389 19.5907 29.998 18 30H5.99999C4.40928 29.998 2.88427 29.3389 1.75946 28.1672C0.634658 26.9956 0.00190543 25.407 0 23.75V6.25002C0.00190543 4.59303 0.634658 3.00447 1.75946 1.8328C2.88427 0.661131 4.40928 0.00201363 5.99999 2.88108e-05H11.418C12.5215 -0.00292984 13.6147 0.222013 14.6343 0.661852C15.6538 1.10169 16.5796 1.7477 17.358 2.56253L21.5388 6.92002C22.3215 7.73032 22.942 8.69434 23.3645 9.75624C23.787 10.8181 24.003 11.9568 24 13.1063ZM15.6612 4.33002C15.2835 3.94898 14.8595 3.62118 14.4 3.35503V8.75002C14.4 9.08154 14.5264 9.39948 14.7515 9.6339C14.9765 9.86832 15.2817 10 15.6 10H20.7792C20.5235 9.52151 20.2084 9.0802 19.842 8.68752L15.6612 4.33002ZM21.6 13.1063C21.6 12.9 21.5616 12.7025 21.5436 12.5H15.6C14.6452 12.5 13.7295 12.1049 13.0544 11.4017C12.3793 10.6984 12 9.74458 12 8.75002V2.55878C11.8056 2.54003 11.6148 2.50003 11.418 2.50003H5.99999C5.04521 2.50003 4.12954 2.89511 3.45441 3.59838C2.77928 4.30164 2.4 5.25546 2.4 6.25002V23.75C2.4 24.7446 2.77928 25.6984 3.45441 26.4017C4.12954 27.1049 5.04521 27.5 5.99999 27.5H18C18.9548 27.5 19.8704 27.1049 20.5456 26.4017C21.2207 25.6984 21.6 24.7446 21.6 23.75V13.1063Z" fill="white"/>
</svg>
