<svg width="27" height="28" viewBox="0 0 27 28" fill="none" xmlns="http://www.w3.org/2000/svg">
<path d="M1.8352 0.00466033L0 1.83986L9.08423 10.9241L10.9194 9.08889L1.8352 0.00466033Z" fill="#C6FF3E"/>
<path d="M9.62084 -6.98918e-05L7.78564 1.83513L12.9793 7.02874L14.8145 5.19354L9.62084 -6.98918e-05Z" fill="#C6FF3E"/>
<path d="M1.8352 7.7923L0 9.6275L5.19361 14.8211L7.02881 12.9859L1.8352 7.7923Z" fill="#C6FF3E"/>
<path fill-rule="evenodd" clip-rule="evenodd" d="M9.54782 14.8825C10.9576 11.8971 13.9327 9.79579 17.4141 9.63744C15.4452 12.5569 12.3852 14.2272 9.54782 14.8825ZM9.03178 16.25C8.7995 17.0566 8.67505 17.9089 8.67505 18.7903C8.67505 21.881 10.2053 24.6142 12.5495 26.2737C15.069 21.759 15.5815 17.5612 14.4086 14.196C12.6759 15.2788 10.7918 15.9448 9.03178 16.25ZM13.608 26.9203C14.8733 27.5799 16.3119 27.9528 17.8375 27.9528C20.1754 27.9528 22.3088 27.0772 23.9276 25.6361C21.8442 24.5208 20.3978 23.4012 19.4867 22.2933C18.171 20.6933 17.9562 19.0856 18.6072 17.6443C19.2289 16.2682 20.5889 15.161 22.1657 14.3551C23.0751 13.8903 24.0841 13.5114 25.122 13.2319C23.6411 11.294 21.4043 9.96441 18.8518 9.68332C17.9402 11.2279 16.7661 12.4808 15.4632 13.4692C16.9401 17.3328 16.3436 22.0366 13.608 26.9203ZM25.8418 14.3279C24.7434 14.5928 23.6725 14.9776 22.73 15.4593C21.2648 16.2081 20.1921 17.148 19.7373 18.1548C19.312 19.0965 19.377 20.2075 20.4445 21.5057C21.2641 22.5024 22.6622 23.586 24.831 24.7103C26.184 23.1135 27 21.0472 27 18.7903C27 17.1702 26.5796 15.6484 25.8418 14.3279Z" fill="#C6FF3E"/>
</svg>
