<svg width="11" height="12" viewBox="0 0 11 12" fill="none" xmlns="http://www.w3.org/2000/svg">
<path d="M5.4 7.2C5.23 7.2 5.0876 7.1424 4.9728 7.0272C4.8576 6.9124 4.8 6.77 4.8 6.6C4.8 6.43 4.8576 6.2874 4.9728 6.1722C5.0876 6.0574 5.23 6 5.4 6C5.57 6 5.7126 6.0574 5.8278 6.1722C5.9426 6.2874 6 6.43 6 6.6C6 6.77 5.9426 6.9124 5.8278 7.0272C5.7126 7.1424 5.57 7.2 5.4 7.2ZM3 7.2C2.83 7.2 2.6874 7.1424 2.5722 7.0272C2.4574 6.9124 2.4 6.77 2.4 6.6C2.4 6.43 2.4574 6.2874 2.5722 6.1722C2.6874 6.0574 2.83 6 3 6C3.17 6 3.3126 6.0574 3.4278 6.1722C3.5426 6.2874 3.6 6.43 3.6 6.6C3.6 6.77 3.5426 6.9124 3.4278 7.0272C3.3126 7.1424 3.17 7.2 3 7.2ZM7.8 7.2C7.63 7.2 7.4876 7.1424 7.3728 7.0272C7.2576 6.9124 7.2 6.77 7.2 6.6C7.2 6.43 7.2576 6.2874 7.3728 6.1722C7.4876 6.0574 7.63 6 7.8 6C7.97 6 8.1124 6.0574 8.2272 6.1722C8.3424 6.2874 8.4 6.43 8.4 6.6C8.4 6.77 8.3424 6.9124 8.2272 7.0272C8.1124 7.1424 7.97 7.2 7.8 7.2ZM5.4 9.6C5.23 9.6 5.0876 9.5424 4.9728 9.4272C4.8576 9.3124 4.8 9.17 4.8 9C4.8 8.83 4.8576 8.6876 4.9728 8.5728C5.0876 8.4576 5.23 8.4 5.4 8.4C5.57 8.4 5.7126 8.4576 5.8278 8.5728C5.9426 8.6876 6 8.83 6 9C6 9.17 5.9426 9.3124 5.8278 9.4272C5.7126 9.5424 5.57 9.6 5.4 9.6ZM3 9.6C2.83 9.6 2.6874 9.5424 2.5722 9.4272C2.4574 9.3124 2.4 9.17 2.4 9C2.4 8.83 2.4574 8.6876 2.5722 8.5728C2.6874 8.4576 2.83 8.4 3 8.4C3.17 8.4 3.3126 8.4576 3.4278 8.5728C3.5426 8.6876 3.6 8.83 3.6 9C3.6 9.17 3.5426 9.3124 3.4278 9.4272C3.3126 9.5424 3.17 9.6 3 9.6ZM7.8 9.6C7.63 9.6 7.4876 9.5424 7.3728 9.4272C7.2576 9.3124 7.2 9.17 7.2 9C7.2 8.83 7.2576 8.6876 7.3728 8.5728C7.4876 8.4576 7.63 8.4 7.8 8.4C7.97 8.4 8.1124 8.4576 8.2272 8.5728C8.3424 8.6876 8.4 8.83 8.4 9C8.4 9.17 8.3424 9.3124 8.2272 9.4272C8.1124 9.5424 7.97 9.6 7.8 9.6ZM1.2 12C0.87 12 0.5874 11.8826 0.3522 11.6478C0.1174 11.4126 0 11.13 0 10.8V2.4C0 2.07 0.1174 1.7876 0.3522 1.5528C0.5874 1.3176 0.87 1.2 1.2 1.2H1.8V0H3V1.2H7.8V0H9V1.2H9.6C9.93 1.2 10.2126 1.3176 10.4478 1.5528C10.6826 1.7876 10.8 2.07 10.8 2.4V10.8C10.8 11.13 10.6826 11.4126 10.4478 11.6478C10.2126 11.8826 9.93 12 9.6 12H1.2ZM1.2 10.8H9.6V4.8H1.2V10.8Z" fill="#83878C"/>
</svg>
