<svg width="9" height="10" viewBox="0 0 9 10" fill="none" xmlns="http://www.w3.org/2000/svg">
<path d="M1.66667 10C1.36111 10 1.09963 9.8913 0.882222 9.67389C0.664444 9.45611 0.555556 9.19444 0.555556 8.88889V1.66667C0.398148 1.66667 0.266111 1.61352 0.159445 1.50722C0.0531482 1.40056 0 1.26852 0 1.11111C0 0.953704 0.0531482 0.821667 0.159445 0.715C0.266111 0.608704 0.398148 0.555556 0.555556 0.555556H2.77778C2.77778 0.398148 2.83111 0.266111 2.93778 0.159444C3.04407 0.0531481 3.17593 0 3.33333 0H5.55556C5.71296 0 5.845 0.0531481 5.95167 0.159444C6.05796 0.266111 6.11111 0.398148 6.11111 0.555556H8.33333C8.49074 0.555556 8.62259 0.608704 8.72889 0.715C8.83556 0.821667 8.88889 0.953704 8.88889 1.11111C8.88889 1.26852 8.83556 1.40056 8.72889 1.50722C8.62259 1.61352 8.49074 1.66667 8.33333 1.66667V8.88889C8.33333 9.19444 8.22463 9.45611 8.00722 9.67389C7.78944 9.8913 7.52778 10 7.22222 10H1.66667ZM2.77778 7.22222C2.77778 7.37963 2.83111 7.51148 2.93778 7.61778C3.04407 7.72444 3.17593 7.77778 3.33333 7.77778C3.49074 7.77778 3.62278 7.72444 3.72944 7.61778C3.83574 7.51148 3.88889 7.37963 3.88889 7.22222V3.33333C3.88889 3.17593 3.83574 3.04389 3.72944 2.93722C3.62278 2.83093 3.49074 2.77778 3.33333 2.77778C3.17593 2.77778 3.04407 2.83093 2.93778 2.93722C2.83111 3.04389 2.77778 3.17593 2.77778 3.33333V7.22222ZM5 7.22222C5 7.37963 5.05333 7.51148 5.16 7.61778C5.2663 7.72444 5.39815 7.77778 5.55556 7.77778C5.71296 7.77778 5.845 7.72444 5.95167 7.61778C6.05796 7.51148 6.11111 7.37963 6.11111 7.22222V3.33333C6.11111 3.17593 6.05796 3.04389 5.95167 2.93722C5.845 2.83093 5.71296 2.77778 5.55556 2.77778C5.39815 2.77778 5.2663 2.83093 5.16 2.93722C5.05333 3.04389 5 3.17593 5 3.33333V7.22222Z" fill="#EF4F5B"/>
</svg>
