<svg width="12" height="13" viewBox="0 0 12 13" fill="none" xmlns="http://www.w3.org/2000/svg">
<path d="M1.17049 12.0122C0.848608 12.0122 0.572957 11.8975 0.34354 11.6681C0.114513 11.439 0 11.1636 0 10.8417V2.64824C0 2.32636 0.114513 2.05071 0.34354 1.82129C0.572957 1.59226 0.848608 1.47775 1.17049 1.47775H6.39382L5.22333 2.64824H1.17049V10.8417H9.36395V6.77423L10.5344 5.60374V10.8417C10.5344 11.1636 10.4199 11.439 10.1909 11.6681C9.96149 11.8975 9.68584 12.0122 9.36395 12.0122H1.17049ZM7.71063 1.81427L9.5 3.5L5.5 7.5L4.68198 7.33022H5.50132L9.37858 3.45296L10.2126 4.2723L5.99878 8.50071H3.51148V6.01341L7.71063 1.81427ZM10.2126 4.2723L7.71063 1.81427L9.17375 0.351148C9.40785 0.117049 9.68838 0 10.0153 0C10.3419 0 10.6174 0.117049 10.8417 0.351148L11.661 1.18513C11.8854 1.40947 11.9976 1.68259 11.9976 2.00447C11.9976 2.32636 11.8854 2.59947 11.661 2.82382L10.2126 4.2723Z" fill="#83878C"/>
</svg>
