<svg width="19" height="15" viewBox="0 0 19 15" fill="none" xmlns="http://www.w3.org/2000/svg">
<path d="M16.875 0H1.875C0.84375 0 0.00937499 0.84375 0.00937499 1.875L0 13.125C0 14.1563 0.84375 15 1.875 15H16.875C17.9063 15 18.75 14.1563 18.75 13.125V1.875C18.75 0.84375 17.9063 0 16.875 0ZM15.9375 13.125H2.8125C2.29687 13.125 1.875 12.7031 1.875 12.1875V3.75L8.38125 7.81875C8.99062 8.20313 9.75938 8.20313 10.3688 7.81875L16.875 3.75V12.1875C16.875 12.7031 16.4531 13.125 15.9375 13.125ZM9.375 6.5625L1.875 1.875H16.875L9.375 6.5625Z" fill="#83878C"/>
</svg>
