<svg width="316" height="272" viewBox="0 0 316 272" fill="none" xmlns="http://www.w3.org/2000/svg">
<path d="M52.0199 19.1131C51.9745 19.1131 52.5498 16.2953 52.6028 16.0914C53.2537 14.0819 55.7063 10.5767 58.0757 10.5767C58.4752 10.5841 58.8686 10.6766 59.2295 10.8478C59.5904 11.0191 59.9106 11.2653 60.1685 11.5699C60.4265 11.8745 60.6163 12.2306 60.7253 12.6143C60.8344 12.9979 60.8601 13.4004 60.8008 13.7949C60.6267 15.4568 59.1279 16.877 57.7729 17.6929C56.1681 18.6523 52.0275 19.1131 52.0199 19.1131Z" fill="#C6FF3E"/>
<path d="M47.4252 0.13666C49.6961 0.937415 50.771 5.06206 50.7029 7.17726C50.7029 7.35857 50.2714 10.199 50.2335 10.199H50.1881C50.3698 10.8487 50.5515 11.5512 50.7407 12.3142C51.0738 13.7344 51.4447 15.3359 51.7248 17.1187C52.0469 19.0312 52.2567 20.9608 52.3531 22.8978C52.4733 25.0655 52.3998 27.2397 52.1336 29.3944V29.47C52.4288 28.843 53.3069 27.1055 53.3826 26.9846C54.5483 25.2169 57.8336 22.4521 60.1196 23.1093C60.4962 23.2241 60.8444 23.4167 61.1415 23.6745C61.4387 23.9323 61.6782 24.2496 61.8445 24.6058C62.0109 24.962 62.1003 25.3491 62.107 25.742C62.1136 26.1349 62.0375 26.5248 61.8834 26.8864C61.2778 28.4426 59.4611 29.4171 57.932 29.8477C56.2136 30.3387 52.3834 29.7571 52.0806 29.7117C51.7559 31.8961 51.2855 34.0564 50.6726 36.1782C50.3244 37.4171 49.9156 38.656 49.522 39.8874C49.7945 39.351 50.0367 38.8751 50.0822 38.8071C51.2479 37.0394 54.5332 34.2745 56.8192 34.9317C57.1958 35.0466 57.544 35.2391 57.8411 35.497C58.1383 35.7548 58.3778 36.0721 58.5441 36.4283C58.7105 36.7844 58.7999 37.1716 58.8065 37.5645C58.8132 37.9574 58.7371 38.3473 58.583 38.7089C57.9774 40.2651 56.1606 41.2396 54.6316 41.6702C53.1025 42.1008 49.8096 41.6702 48.9467 41.5569C48.7877 42.0328 48.6288 42.5012 48.4622 42.9771C47.7053 45.2434 46.8877 47.5097 46.1913 49.7306C45.9415 50.486 45.722 51.3019 45.5025 52.0876C45.7447 51.6116 45.9491 51.2113 45.9869 51.1584C47.1527 49.3907 50.4379 46.6258 52.724 47.283C53.1006 47.3978 53.4487 47.5904 53.7459 47.8482C54.0431 48.1061 54.2826 48.4234 54.4489 48.7795C54.6152 49.1357 54.7046 49.5228 54.7113 49.9157C54.718 50.3086 54.6418 50.6986 54.4877 51.0602C53.8822 52.6164 52.0654 53.5909 50.5363 54.0215C49.0073 54.452 46.0399 54.0743 45.0104 53.9308C44.8061 54.7391 44.6092 55.555 44.4503 56.3482C44.3519 56.8921 44.2232 57.4133 44.1551 57.9648L43.928 59.5814C43.822 60.6164 43.7009 61.6815 43.6252 62.6938C43.5646 63.3963 43.5192 64.0687 43.4738 64.7486C43.716 63.9931 44.2308 62.4294 44.2686 62.3085C45.0991 60.6334 46.3479 59.1999 47.8945 58.1461C47.9781 57.9557 48.0795 57.7736 48.1973 57.6022C48.4123 57.2719 48.6947 56.9906 49.026 56.7766C49.3574 56.5625 49.7302 56.4206 50.1201 56.36C50.5101 56.2994 50.9085 56.3216 51.2893 56.425C51.6702 56.5283 52.0249 56.7107 52.3304 56.9601C54.1244 58.4709 53.6778 62.7542 52.8527 64.7032C52.8073 64.8165 52.1336 66.0026 51.7021 66.7504C52.02 66.3501 52.3304 65.995 52.671 65.5569C53.3296 64.7486 54.0108 63.9629 54.7451 63.1168L55.8503 61.9232C56.2136 61.5153 56.6451 61.1301 57.0463 60.7221C57.9925 59.808 58.9993 58.9242 60.0742 58.0554C59.3702 57.4738 56.8949 55.3888 56.1758 53.9686C55.4567 52.5484 54.9268 50.5918 55.6686 49.0809C55.831 48.7227 56.067 48.4025 56.3615 48.1412C56.6559 47.88 57.0022 47.6835 57.3777 47.5645C57.7532 47.4455 58.1496 47.4067 58.5412 47.4506C58.9327 47.4945 59.3106 47.6202 59.6503 47.8194C61.6638 49.0809 61.8607 53.3416 61.3383 55.3737C61.3383 55.5021 60.763 56.9299 60.4527 57.708C61.081 57.1943 61.7017 56.673 62.3527 56.1971C64.23 54.7467 66.1376 53.3416 68.1057 51.9289L69.8846 50.6371C69.6348 50.4332 66.6296 48.0158 65.8348 46.4294C65.1156 45.0167 64.5858 43.0375 65.3427 41.5266C65.5051 41.1684 65.7411 40.8482 66.0356 40.5869C66.33 40.3257 66.6763 40.1292 67.0518 40.0102C67.4273 39.8912 67.8237 39.8524 68.2153 39.8963C68.6068 39.9402 68.9847 40.0659 69.3244 40.2651C71.338 41.5266 71.5348 45.7873 71.0125 47.8194C70.9746 47.9705 70.1949 50.0328 69.9678 50.5389C71.2623 49.5795 72.5415 48.6126 73.7527 47.6003C75.4099 46.2502 76.9776 44.7942 78.4459 43.2415C78.3248 43.1508 75.191 40.6352 74.3734 39.0111C73.6619 37.5984 73.1547 35.6041 73.8965 34.1008C74.0589 33.7425 74.2949 33.4223 74.5894 33.1611C74.8838 32.8998 75.2301 32.7033 75.6056 32.5843C75.9811 32.4653 76.3775 32.4265 76.7691 32.4704C77.1606 32.5144 77.5385 32.64 77.8782 32.8392C79.8918 34.1008 80.0886 38.3614 79.5663 40.3935C79.5663 40.5295 78.938 42.0932 78.6427 42.8335L78.7563 42.9015C80.2021 41.3032 81.5017 39.579 82.6396 37.7495C83.2754 36.7523 83.8204 35.7552 84.3352 34.7807C83.6993 34.3727 80.8304 32.5144 79.9296 31.0942C79.0288 29.674 78.34 27.8383 78.9153 26.267C79.0376 25.8972 79.2358 25.5569 79.4973 25.2678C79.7588 24.9788 80.0777 24.7473 80.4338 24.588C80.7899 24.4288 81.1754 24.3454 81.5656 24.3431C81.9558 24.3409 82.3422 24.4198 82.7001 24.5748C84.8348 25.6022 85.5085 29.825 85.2133 31.9176C85.2133 32.0309 84.9105 33.1716 84.6834 34.0026C84.9105 33.5569 85.1451 33.1036 85.3571 32.673C86.1141 31.0639 86.7499 29.538 87.2874 28.1782C87.5826 27.4228 87.84 26.6673 88.0444 26.0403C87.6356 25.2849 86.0081 22.3841 85.8567 20.7523C85.7053 19.1206 85.9475 17.1338 87.1814 16.0007C87.4623 15.7248 87.7983 15.511 88.1675 15.3732C88.5367 15.2354 88.9308 15.1767 89.3243 15.2009C89.7177 15.2251 90.1016 15.3317 90.451 15.5138C90.8004 15.6958 91.1075 15.9492 91.3523 16.2575C92.7754 18.1537 91.4205 22.2103 90.1942 23.9327C90.0882 24.0838 88.1579 26.199 88.1428 26.199V26.1537C87.9308 26.7958 87.7037 27.4832 87.4312 28.2235C86.924 29.5909 86.3412 31.1319 85.5918 32.7561C84.8052 34.5288 83.9155 36.2542 82.9272 37.9232C81.8253 39.7945 80.5587 41.5641 79.1424 43.2113L79.0894 43.2641C79.6798 42.9015 81.3603 41.9346 81.5117 41.8817C83.4571 41.0432 87.7113 40.5748 89.2707 42.3576C89.5216 42.661 89.7058 43.0138 89.8111 43.3929C89.9165 43.772 89.9407 44.169 89.8821 44.5581C89.8236 44.9472 89.6836 45.3196 89.4713 45.6511C89.259 45.9826 88.9791 46.2658 88.6499 46.4823C87.2798 47.4492 85.2284 47.2377 83.722 46.7844C82.0188 46.2481 79.1802 43.657 78.9153 43.453C77.4356 45.098 75.8475 46.6425 74.1615 48.0762C73.185 48.9147 72.1706 49.7306 71.1336 50.5389C71.6559 50.2443 72.1252 49.9799 72.1933 49.9497C74.1388 49.1112 78.3929 48.6428 79.9599 50.4256C80.2109 50.729 80.395 51.0818 80.5004 51.4609C80.6057 51.84 80.6299 52.237 80.5714 52.6261C80.5128 53.0152 80.3728 53.3876 80.1605 53.7191C79.9482 54.0506 79.6684 54.3338 79.3392 54.5503C77.969 55.5172 75.9176 55.3057 74.4113 54.8524C72.9049 54.3992 70.3842 52.2084 69.7332 51.6267L68.5523 52.5408C66.6447 53.9988 64.7674 55.4417 62.9128 56.9148C62.2694 57.436 61.6563 57.9724 61.0356 58.5012C61.4973 58.2368 61.8909 58.0177 61.9591 57.9875C63.9045 57.1489 68.1587 56.6806 69.718 58.4634C69.9862 58.7665 70.1855 59.1239 70.3023 59.5111C70.419 59.8983 70.4504 60.3061 70.3943 60.7066C70.3382 61.107 70.196 61.4906 69.9773 61.831C69.7587 62.1714 69.4688 62.4606 69.1276 62.6787C67.7575 63.6456 65.7061 63.4341 64.1997 62.9809C62.6933 62.5276 60.4148 60.5484 59.6579 59.8609C59.0447 60.4275 58.424 60.9865 57.8563 61.5682C57.4778 61.9686 57.0993 62.3236 56.7208 62.7542L55.6383 63.9629C54.9798 64.7712 54.2909 65.5946 53.6626 66.3954C53.2236 66.9469 52.8148 67.4832 52.3985 68.0271C53.0343 67.5059 54.2985 66.5163 54.412 66.4332C56.2136 65.3076 60.3467 64.1895 62.1634 65.7004C62.4566 65.9632 62.6911 66.2847 62.8516 66.6439C63.0122 67.0031 63.0951 67.3921 63.0951 67.7854C63.0951 68.1787 63.0122 68.5676 62.8516 68.9268C62.6911 69.286 62.4566 69.6075 62.1634 69.8704C60.9599 71.0337 58.9009 71.1546 57.334 70.9129C55.6156 70.6409 52.4969 68.6466 52.1108 68.3595C51.4371 69.2811 50.7786 70.1574 50.2033 70.9884C48.1065 73.8817 46.4714 76.3746 45.3511 78.1272L45.2375 78.3085L43.7841 77.606L44.0112 77.2585C45.1845 75.5059 46.8877 73.0281 49.0754 70.1574C49.7642 69.2434 50.5136 68.2915 51.3009 67.3095C50.4897 66.4256 49.7314 65.4948 49.03 64.5219C47.3646 65.1716 43.8901 65.2018 43.4435 65.2018C43.3678 66.3198 43.3072 67.4152 43.2694 68.4426C43.118 72.0082 43.1331 74.9922 43.1634 77.0696C43.1634 77.1527 43.1634 77.2283 43.1634 77.3113L41.5662 76.5559C41.5662 74.486 41.6419 71.691 41.8539 68.3822C41.922 67.2415 42.0204 66.0328 42.1339 64.7863C41.6949 64.673 38.0841 63.7514 36.714 62.6636C35.4801 61.674 34.1781 60.08 34.2236 58.4105C34.218 58.0137 34.297 57.6202 34.4553 57.2561C34.6135 56.8921 34.8474 56.5657 35.1415 56.2986C35.4357 56.0315 35.7833 55.8298 36.1614 55.7068C36.5394 55.5838 36.9394 55.5424 37.3347 55.5852C39.6889 55.8874 41.6646 59.6796 42.0507 61.7571C42.0507 61.8779 42.1718 63.2679 42.2248 64.0989C42.2702 63.5927 42.3156 63.0942 42.3686 62.588C42.4746 61.5531 42.6108 60.5257 42.7471 59.4152L43.012 57.7986C43.0877 57.2547 43.2391 56.6957 43.3527 56.1367C43.6403 54.8524 43.9885 53.5606 44.3746 52.2689C43.4662 52.1782 40.2491 51.8005 38.8714 51.0073C37.4937 50.2141 35.9722 48.8392 35.7602 47.1773C35.6969 46.7885 35.7165 46.3908 35.8175 46.0101C35.9186 45.6294 36.0989 45.2742 36.3467 44.9677C36.5946 44.6613 36.9044 44.4103 37.2559 44.2313C37.6074 44.0523 37.9928 43.9493 38.3869 43.9289C40.7562 43.8685 43.2845 47.3208 43.9885 49.3151C44.0339 49.436 44.3746 50.9317 44.5411 51.7476C44.7758 50.9922 45.0104 50.199 45.2981 49.4209C46.0551 47.1546 46.9029 44.9336 47.7355 42.6976C47.9929 42.0101 48.2351 41.3227 48.4925 40.6352C48.167 40.6352 44.3292 40.2424 42.7849 39.351C41.4148 38.5956 39.8857 37.1829 39.6738 35.521C39.6105 35.1322 39.63 34.7346 39.7311 34.3538C39.8321 33.9731 40.0124 33.618 40.2603 33.3115C40.5081 33.005 40.8179 32.7541 41.1694 32.5751C41.521 32.3961 41.9064 32.293 42.3005 32.2726C44.6698 32.2122 47.1981 35.6645 47.9021 37.6588C47.9551 37.8099 48.4395 39.9251 48.5379 40.5068C49.0829 38.996 49.6204 37.4851 50.0519 35.9742C50.6909 33.9342 51.1966 31.8549 51.5658 29.7495C51.4144 29.7495 47.41 29.3718 45.828 28.4653C44.4578 27.7098 42.9288 26.2972 42.7168 24.6352C42.6535 24.2465 42.673 23.8488 42.7741 23.4681C42.8752 23.0874 43.0555 22.7322 43.3033 22.4257C43.5512 22.1192 43.8609 21.8683 44.2125 21.6893C44.564 21.5103 44.9494 21.4073 45.3435 21.3869C47.7128 21.3265 50.2411 24.7788 50.9451 26.7731C50.9905 26.9015 51.3614 28.5333 51.5204 29.3189H51.6567C51.9668 27.1908 52.0859 25.0394 52.0124 22.8902C52.0124 21.7042 51.8989 20.5786 51.7853 19.4757C51.0284 19.4757 47.5917 19.4757 46.0778 18.826C44.5638 18.1763 42.959 16.9827 42.5654 15.3586C42.4604 14.9781 42.4371 14.5798 42.497 14.1897C42.5569 13.7996 42.6987 13.4266 42.9131 13.095C43.1275 12.7634 43.4096 12.4807 43.741 12.2654C44.0725 12.0502 44.4457 11.9072 44.8363 11.8458C47.1905 11.5285 50.0822 14.6787 50.9905 16.5899C51.0435 16.6957 51.4296 17.8062 51.7021 18.6145C51.6415 18.1234 51.5961 17.6097 51.528 17.1036C51.2857 15.3284 50.9602 13.7193 50.6575 12.2915C50.4758 11.4832 50.3017 10.7807 50.1276 10.0781C49.3706 9.7004 46.4108 8.14421 45.3889 6.8902C44.367 5.63619 43.3905 3.83826 43.8068 2.24431C43.8856 1.8575 44.0454 1.49167 44.2757 1.17077C44.506 0.849861 44.8016 0.581122 45.1432 0.382147C45.4848 0.183172 45.8647 0.0584483 46.2579 0.0161437C46.6512 -0.026161 47.0489 0.0149074 47.4252 0.13666Z" fill="#C6FF3E"/>
<path d="M90.3228 36.6466C88.4682 36.571 84.759 34.6749 84.759 34.6749C84.759 34.6749 86.7574 32.6201 86.9013 32.4993C88.559 31.1773 92.5407 29.606 94.5164 30.9129C94.8384 31.1394 95.109 31.4311 95.3107 31.7688C95.5124 32.1066 95.6405 32.4829 95.687 32.8733C95.7334 33.2637 95.6969 33.6596 95.58 34.035C95.4631 34.4105 95.2684 34.7572 95.0084 35.0526C93.9487 36.352 91.92 36.7146 90.3228 36.6466Z" fill="#C6FF3E"/>
<g opacity="0.5">
<path d="M52.0199 19.1131C51.9745 19.1131 52.5498 16.2953 52.6028 16.0914C53.2537 14.0819 55.7063 10.5767 58.0757 10.5767C58.4752 10.5841 58.8686 10.6766 59.2295 10.8478C59.5904 11.0191 59.9106 11.2653 60.1685 11.5699C60.4265 11.8745 60.6163 12.2306 60.7253 12.6143C60.8344 12.9979 60.8601 13.4004 60.8008 13.7949C60.6267 15.4568 59.1279 16.877 57.7729 17.6929C56.1681 18.6523 52.0275 19.1131 52.0199 19.1131Z" fill="white"/>
<path d="M47.4252 0.13666C49.6961 0.937415 50.771 5.06206 50.7029 7.17726C50.7029 7.35857 50.2714 10.199 50.2335 10.199H50.1881C50.3698 10.8487 50.5515 11.5512 50.7407 12.3142C51.0738 13.7344 51.4447 15.3359 51.7248 17.1187C52.0469 19.0312 52.2567 20.9608 52.3531 22.8978C52.4733 25.0655 52.3998 27.2397 52.1336 29.3944V29.47C52.4288 28.843 53.3069 27.1055 53.3826 26.9846C54.5483 25.2169 57.8336 22.4521 60.1196 23.1093C60.4962 23.2241 60.8444 23.4167 61.1415 23.6745C61.4387 23.9323 61.6782 24.2496 61.8445 24.6058C62.0109 24.962 62.1003 25.3491 62.107 25.742C62.1136 26.1349 62.0375 26.5248 61.8834 26.8864C61.2778 28.4426 59.4611 29.4171 57.932 29.8477C56.2136 30.3387 52.3834 29.7571 52.0806 29.7117C51.7559 31.8961 51.2855 34.0564 50.6726 36.1782C50.3244 37.4171 49.9156 38.656 49.522 39.8874C49.7945 39.351 50.0367 38.8751 50.0822 38.8071C51.2479 37.0394 54.5332 34.2745 56.8192 34.9317C57.1958 35.0466 57.544 35.2391 57.8411 35.497C58.1383 35.7548 58.3778 36.0721 58.5441 36.4283C58.7105 36.7844 58.7999 37.1716 58.8065 37.5645C58.8132 37.9574 58.7371 38.3473 58.583 38.7089C57.9774 40.2651 56.1606 41.2396 54.6316 41.6702C53.1025 42.1008 49.8096 41.6702 48.9467 41.5569C48.7877 42.0328 48.6288 42.5012 48.4622 42.9771C47.7053 45.2434 46.8877 47.5097 46.1913 49.7306C45.9415 50.486 45.722 51.3019 45.5025 52.0876C45.7447 51.6116 45.9491 51.2113 45.9869 51.1584C47.1527 49.3907 50.4379 46.6258 52.724 47.283C53.1006 47.3978 53.4487 47.5904 53.7459 47.8482C54.0431 48.1061 54.2826 48.4234 54.4489 48.7795C54.6152 49.1357 54.7046 49.5228 54.7113 49.9157C54.718 50.3086 54.6418 50.6986 54.4877 51.0602C53.8822 52.6164 52.0654 53.5909 50.5363 54.0215C49.0073 54.452 46.0399 54.0743 45.0104 53.9308C44.8061 54.7391 44.6092 55.555 44.4503 56.3482C44.3519 56.8921 44.2232 57.4133 44.1551 57.9648L43.928 59.5814C43.822 60.6164 43.7009 61.6815 43.6252 62.6938C43.5646 63.3963 43.5192 64.0687 43.4738 64.7486C43.716 63.9931 44.2308 62.4294 44.2686 62.3085C45.0991 60.6334 46.3479 59.1999 47.8945 58.1461C47.9781 57.9557 48.0795 57.7736 48.1973 57.6022C48.4123 57.2719 48.6947 56.9906 49.026 56.7766C49.3574 56.5625 49.7302 56.4206 50.1201 56.36C50.5101 56.2994 50.9085 56.3216 51.2893 56.425C51.6702 56.5283 52.0249 56.7107 52.3304 56.9601C54.1244 58.4709 53.6778 62.7542 52.8527 64.7032C52.8073 64.8165 52.1336 66.0026 51.7021 66.7504C52.02 66.3501 52.3304 65.995 52.671 65.5569C53.3296 64.7486 54.0108 63.9629 54.7451 63.1168L55.8503 61.9232C56.2136 61.5153 56.6451 61.1301 57.0463 60.7221C57.9925 59.808 58.9993 58.9242 60.0742 58.0554C59.3702 57.4738 56.8949 55.3888 56.1758 53.9686C55.4567 52.5484 54.9268 50.5918 55.6686 49.0809C55.831 48.7227 56.067 48.4025 56.3615 48.1412C56.6559 47.88 57.0022 47.6835 57.3777 47.5645C57.7532 47.4455 58.1496 47.4067 58.5412 47.4506C58.9327 47.4945 59.3106 47.6202 59.6503 47.8194C61.6638 49.0809 61.8607 53.3416 61.3383 55.3737C61.3383 55.5021 60.763 56.9299 60.4527 57.708C61.081 57.1943 61.7017 56.673 62.3527 56.1971C64.23 54.7467 66.1376 53.3416 68.1057 51.9289L69.8846 50.6371C69.6348 50.4332 66.6296 48.0158 65.8348 46.4294C65.1156 45.0167 64.5858 43.0375 65.3427 41.5266C65.5051 41.1684 65.7411 40.8482 66.0356 40.5869C66.33 40.3257 66.6763 40.1292 67.0518 40.0102C67.4273 39.8912 67.8237 39.8524 68.2153 39.8963C68.6068 39.9402 68.9847 40.0659 69.3244 40.2651C71.338 41.5266 71.5348 45.7873 71.0125 47.8194C70.9746 47.9705 70.1949 50.0328 69.9678 50.5389C71.2623 49.5795 72.5415 48.6126 73.7527 47.6003C75.4099 46.2502 76.9776 44.7942 78.4459 43.2415C78.3248 43.1508 75.191 40.6352 74.3734 39.0111C73.6619 37.5984 73.1547 35.6041 73.8965 34.1008C74.0589 33.7425 74.2949 33.4223 74.5894 33.1611C74.8838 32.8998 75.2301 32.7033 75.6056 32.5843C75.9811 32.4653 76.3775 32.4265 76.7691 32.4704C77.1606 32.5144 77.5385 32.64 77.8782 32.8392C79.8918 34.1008 80.0886 38.3614 79.5663 40.3935C79.5663 40.5295 78.938 42.0932 78.6427 42.8335L78.7563 42.9015C80.2021 41.3032 81.5017 39.579 82.6396 37.7495C83.2754 36.7523 83.8204 35.7552 84.3352 34.7807C83.6993 34.3727 80.8304 32.5144 79.9296 31.0942C79.0288 29.674 78.34 27.8383 78.9153 26.267C79.0376 25.8972 79.2358 25.5569 79.4973 25.2678C79.7588 24.9788 80.0777 24.7473 80.4338 24.588C80.7899 24.4288 81.1754 24.3454 81.5656 24.3431C81.9558 24.3409 82.3422 24.4198 82.7001 24.5748C84.8348 25.6022 85.5085 29.825 85.2133 31.9176C85.2133 32.0309 84.9105 33.1716 84.6834 34.0026C84.9105 33.5569 85.1451 33.1036 85.3571 32.673C86.1141 31.0639 86.7499 29.538 87.2874 28.1782C87.5826 27.4228 87.84 26.6673 88.0444 26.0403C87.6356 25.2849 86.0081 22.3841 85.8567 20.7523C85.7053 19.1206 85.9475 17.1338 87.1814 16.0007C87.4623 15.7248 87.7983 15.511 88.1675 15.3732C88.5367 15.2354 88.9308 15.1767 89.3243 15.2009C89.7177 15.2251 90.1016 15.3317 90.451 15.5138C90.8004 15.6958 91.1075 15.9492 91.3523 16.2575C92.7754 18.1537 91.4205 22.2103 90.1942 23.9327C90.0882 24.0838 88.1579 26.199 88.1428 26.199V26.1537C87.9308 26.7958 87.7037 27.4832 87.4312 28.2235C86.924 29.5909 86.3412 31.1319 85.5918 32.7561C84.8052 34.5288 83.9155 36.2542 82.9272 37.9232C81.8253 39.7945 80.5587 41.5641 79.1424 43.2113L79.0894 43.2641C79.6798 42.9015 81.3603 41.9346 81.5117 41.8817C83.4571 41.0432 87.7113 40.5748 89.2707 42.3576C89.5216 42.661 89.7058 43.0138 89.8111 43.3929C89.9165 43.772 89.9407 44.169 89.8821 44.5581C89.8236 44.9472 89.6836 45.3196 89.4713 45.6511C89.259 45.9826 88.9791 46.2658 88.6499 46.4823C87.2798 47.4492 85.2284 47.2377 83.722 46.7844C82.0188 46.2481 79.1802 43.657 78.9153 43.453C77.4356 45.098 75.8475 46.6425 74.1615 48.0762C73.185 48.9147 72.1706 49.7306 71.1336 50.5389C71.6559 50.2443 72.1252 49.9799 72.1933 49.9497C74.1388 49.1112 78.3929 48.6428 79.9599 50.4256C80.2109 50.729 80.395 51.0818 80.5004 51.4609C80.6057 51.84 80.6299 52.237 80.5714 52.6261C80.5128 53.0152 80.3728 53.3876 80.1605 53.7191C79.9482 54.0506 79.6684 54.3338 79.3392 54.5503C77.969 55.5172 75.9176 55.3057 74.4113 54.8524C72.9049 54.3992 70.3842 52.2084 69.7332 51.6267L68.5523 52.5408C66.6447 53.9988 64.7674 55.4417 62.9128 56.9148C62.2694 57.436 61.6563 57.9724 61.0356 58.5012C61.4973 58.2368 61.8909 58.0177 61.9591 57.9875C63.9045 57.1489 68.1587 56.6806 69.718 58.4634C69.9862 58.7665 70.1855 59.1239 70.3023 59.5111C70.419 59.8983 70.4504 60.3061 70.3943 60.7066C70.3382 61.107 70.196 61.4906 69.9773 61.831C69.7587 62.1714 69.4688 62.4606 69.1276 62.6787C67.7575 63.6456 65.7061 63.4341 64.1997 62.9809C62.6933 62.5276 60.4148 60.5484 59.6579 59.8609C59.0447 60.4275 58.424 60.9865 57.8563 61.5682C57.4778 61.9686 57.0993 62.3236 56.7208 62.7542L55.6383 63.9629C54.9798 64.7712 54.2909 65.5946 53.6626 66.3954C53.2236 66.9469 52.8148 67.4832 52.3985 68.0271C53.0343 67.5059 54.2985 66.5163 54.412 66.4332C56.2136 65.3076 60.3467 64.1895 62.1634 65.7004C62.4566 65.9632 62.6911 66.2847 62.8516 66.6439C63.0122 67.0031 63.0951 67.3921 63.0951 67.7854C63.0951 68.1787 63.0122 68.5676 62.8516 68.9268C62.6911 69.286 62.4566 69.6075 62.1634 69.8704C60.9599 71.0337 58.9009 71.1546 57.334 70.9129C55.6156 70.6409 52.4969 68.6466 52.1108 68.3595C51.4371 69.2811 50.7786 70.1574 50.2033 70.9884C48.1065 73.8817 46.4714 76.3746 45.3511 78.1272L45.2375 78.3085L43.7841 77.606L44.0112 77.2585C45.1845 75.5059 46.8877 73.0281 49.0754 70.1574C49.7642 69.2434 50.5136 68.2915 51.3009 67.3095C50.4897 66.4256 49.7314 65.4948 49.03 64.5219C47.3646 65.1716 43.8901 65.2018 43.4435 65.2018C43.3678 66.3198 43.3072 67.4152 43.2694 68.4426C43.118 72.0082 43.1331 74.9922 43.1634 77.0696C43.1634 77.1527 43.1634 77.2283 43.1634 77.3113L41.5662 76.5559C41.5662 74.486 41.6419 71.691 41.8539 68.3822C41.922 67.2415 42.0204 66.0328 42.1339 64.7863C41.6949 64.673 38.0841 63.7514 36.714 62.6636C35.4801 61.674 34.1781 60.08 34.2236 58.4105C34.218 58.0137 34.297 57.6202 34.4553 57.2561C34.6135 56.8921 34.8474 56.5657 35.1415 56.2986C35.4357 56.0315 35.7833 55.8298 36.1614 55.7068C36.5394 55.5838 36.9394 55.5424 37.3347 55.5852C39.6889 55.8874 41.6646 59.6796 42.0507 61.7571C42.0507 61.8779 42.1718 63.2679 42.2248 64.0989C42.2702 63.5927 42.3156 63.0942 42.3686 62.588C42.4746 61.5531 42.6108 60.5257 42.7471 59.4152L43.012 57.7986C43.0877 57.2547 43.2391 56.6957 43.3527 56.1367C43.6403 54.8524 43.9885 53.5606 44.3746 52.2689C43.4662 52.1782 40.2491 51.8005 38.8714 51.0073C37.4937 50.2141 35.9722 48.8392 35.7602 47.1773C35.6969 46.7885 35.7165 46.3908 35.8175 46.0101C35.9186 45.6294 36.0989 45.2742 36.3467 44.9677C36.5946 44.6613 36.9044 44.4103 37.2559 44.2313C37.6074 44.0523 37.9928 43.9493 38.3869 43.9289C40.7562 43.8685 43.2845 47.3208 43.9885 49.3151C44.0339 49.436 44.3746 50.9317 44.5411 51.7476C44.7758 50.9922 45.0104 50.199 45.2981 49.4209C46.0551 47.1546 46.9029 44.9336 47.7355 42.6976C47.9929 42.0101 48.2351 41.3227 48.4925 40.6352C48.167 40.6352 44.3292 40.2424 42.7849 39.351C41.4148 38.5956 39.8857 37.1829 39.6738 35.521C39.6105 35.1322 39.63 34.7346 39.7311 34.3538C39.8321 33.9731 40.0124 33.618 40.2603 33.3115C40.5081 33.005 40.8179 32.7541 41.1694 32.5751C41.521 32.3961 41.9064 32.293 42.3005 32.2726C44.6698 32.2122 47.1981 35.6645 47.9021 37.6588C47.9551 37.8099 48.4395 39.9251 48.5379 40.5068C49.0829 38.996 49.6204 37.4851 50.0519 35.9742C50.6909 33.9342 51.1966 31.8549 51.5658 29.7495C51.4144 29.7495 47.41 29.3718 45.828 28.4653C44.4578 27.7098 42.9288 26.2972 42.7168 24.6352C42.6535 24.2465 42.673 23.8488 42.7741 23.4681C42.8752 23.0874 43.0555 22.7322 43.3033 22.4257C43.5512 22.1192 43.8609 21.8683 44.2125 21.6893C44.564 21.5103 44.9494 21.4073 45.3435 21.3869C47.7128 21.3265 50.2411 24.7788 50.9451 26.7731C50.9905 26.9015 51.3614 28.5333 51.5204 29.3189H51.6567C51.9668 27.1908 52.0859 25.0394 52.0124 22.8902C52.0124 21.7042 51.8989 20.5786 51.7853 19.4757C51.0284 19.4757 47.5917 19.4757 46.0778 18.826C44.5638 18.1763 42.959 16.9827 42.5654 15.3586C42.4604 14.9781 42.4371 14.5798 42.497 14.1897C42.5569 13.7996 42.6987 13.4266 42.9131 13.095C43.1275 12.7634 43.4096 12.4807 43.741 12.2654C44.0725 12.0502 44.4457 11.9072 44.8363 11.8458C47.1905 11.5285 50.0822 14.6787 50.9905 16.5899C51.0435 16.6957 51.4296 17.8062 51.7021 18.6145C51.6415 18.1234 51.5961 17.6097 51.528 17.1036C51.2857 15.3284 50.9602 13.7193 50.6575 12.2915C50.4758 11.4832 50.3017 10.7807 50.1276 10.0781C49.3706 9.7004 46.4108 8.14421 45.3889 6.8902C44.367 5.63619 43.3905 3.83826 43.8068 2.24431C43.8856 1.8575 44.0454 1.49167 44.2757 1.17077C44.506 0.849861 44.8016 0.581122 45.1432 0.382147C45.4848 0.183172 45.8647 0.0584483 46.2579 0.0161437C46.6512 -0.026161 47.0489 0.0149074 47.4252 0.13666Z" fill="white"/>
<path d="M90.3228 36.6466C88.4682 36.571 84.759 34.6749 84.759 34.6749C84.759 34.6749 86.7574 32.6201 86.9013 32.4993C88.559 31.1773 92.5407 29.606 94.5164 30.9129C94.8384 31.1394 95.109 31.4311 95.3107 31.7688C95.5124 32.1066 95.6405 32.4829 95.687 32.8733C95.7334 33.2637 95.6969 33.6596 95.58 34.035C95.4631 34.4105 95.2684 34.7572 95.0084 35.0526C93.9487 36.352 91.92 36.7146 90.3228 36.6466Z" fill="white"/>
</g>
<path d="M68.6809 82.9997C68.6809 82.9997 57.4247 55.9251 51.1267 57.1036C44.8287 58.2821 61.9287 100.269 61.9287 100.269C61.9287 100.269 42.1263 62.9884 28.6219 62.9884C15.1175 62.9884 33.5498 104.19 50.6725 117.923C50.6725 117.923 23.6637 88.8845 7.91111 95.1622C-7.8415 101.44 39.4163 130.871 39.4163 130.871C39.4163 130.871 11.9609 122.237 15.1099 128.907C18.2589 135.578 26.8127 136.756 26.8127 136.756L34.057 138.327H73.4196L79.4753 135.97C79.4753 135.97 104.683 123.415 97.9303 118.309C91.1781 113.202 76.3263 124.193 76.3263 124.193C76.3263 124.193 101.988 95.9176 97.0371 85.3416C92.0865 74.7656 70.0283 104.567 70.0283 104.567C70.0283 104.567 88.0291 66.5012 84.4108 59.8307C80.7925 53.1603 68.6809 82.9997 68.6809 82.9997Z" fill="#C6FF3E"/>
<path opacity="0.4" d="M68.6809 82.9997C68.6809 82.9997 57.4247 55.9251 51.1267 57.1036C44.8287 58.2821 61.9287 100.269 61.9287 100.269C61.9287 100.269 42.1263 62.9884 28.6219 62.9884C15.1175 62.9884 33.5498 104.19 50.6725 117.923C50.6725 117.923 23.6637 88.8845 7.91111 95.1622C-7.8415 101.44 39.4163 130.871 39.4163 130.871C39.4163 130.871 11.9609 122.237 15.1099 128.907C18.2589 135.578 26.8127 136.756 26.8127 136.756L38.5988 138.327H70.3917L79.4753 135.97C79.4753 135.97 104.683 123.415 97.9303 118.309C91.1781 113.202 76.3263 124.193 76.3263 124.193C76.3263 124.193 101.988 95.9176 97.0371 85.3416C92.0865 74.7656 70.0283 104.567 70.0283 104.567C70.0283 104.567 88.0291 66.5012 84.4108 59.8307C80.7925 53.1603 68.6809 82.9997 68.6809 82.9997Z" fill="white"/>
<path d="M72.2765 84.4275C62.3752 113.625 62.3752 134.286 62.3752 134.286C62.3752 134.286 74.078 134.732 86.2275 125.749" stroke="#101B2B" stroke-width="0.3" stroke-linecap="round" stroke-linejoin="round"/>
<path d="M67.3259 100.148C65.2871 91.4198 62.5792 82.8607 59.2263 74.5465" stroke="#101B2B" stroke-width="0.3" stroke-linecap="round" stroke-linejoin="round"/>
<path d="M38.0916 83.0753L63.2988 120.356C63.2988 120.356 80.4063 106.003 86.2577 97.8968" stroke="#101B2B" stroke-width="0.3" stroke-linecap="round" stroke-linejoin="round"/>
<path d="M62.8295 129.345C62.8295 129.345 36.2673 116.767 25.4653 109.583" stroke="#101B2B" stroke-width="0.3" stroke-linecap="round" stroke-linejoin="round"/>
<path d="M142.766 22.5502H137.293V250.154H142.766V22.5502Z" fill="#C2C2C2" stroke="#ABABAB" stroke-width="0.3" stroke-linecap="round" stroke-linejoin="round"/>
<path d="M44.3213 22.5502H38.8484V250.154H44.3213V22.5502Z" fill="#C2C2C2" stroke="#ABABAB" stroke-width="0.3" stroke-linecap="round" stroke-linejoin="round"/>
<path d="M93.5474 22.5502H88.0745V250.154H93.5474V22.5502Z" fill="#C2C2C2" stroke="#ABABAB" stroke-width="0.3" stroke-linecap="round" stroke-linejoin="round"/>
<path d="M191.992 22.5502H186.519V250.154H191.992V22.5502Z" fill="#C2C2C2" stroke="#ABABAB" stroke-width="0.3" stroke-linecap="round" stroke-linejoin="round"/>
<path d="M190.349 29.6437H37.0847V40.0158H190.349V29.6437Z" fill="#C2C2C2" stroke="#ABABAB" stroke-width="0.3" stroke-linecap="round" stroke-linejoin="round"/>
<path d="M190.349 29.6437H91.7156V40.0158H190.349V29.6437Z" fill="#A6A6A6" stroke="#ABABAB" stroke-width="0.3" stroke-linecap="round" stroke-linejoin="round"/>
<path d="M190.349 134.082H37.0847V144.454H190.349V134.082Z" fill="#C2C2C2" stroke="#ABABAB" stroke-width="0.3" stroke-linecap="round" stroke-linejoin="round"/>
<path d="M190.349 134.082H91.7156V144.454H190.349V134.082Z" fill="#A6A6A6" stroke="#ABABAB" stroke-width="0.3" stroke-linecap="round" stroke-linejoin="round"/>
<path d="M190.349 238.512H37.0847V248.884H190.349V238.512Z" fill="#C2C2C2" stroke="#ABABAB" stroke-width="0.3" stroke-linecap="round" stroke-linejoin="round"/>
<path d="M190.349 238.512H91.7156V248.884H190.349V238.512Z" fill="#A6A6A6" stroke="#ABABAB" stroke-width="0.3" stroke-linecap="round" stroke-linejoin="round"/>
<path d="M1.37842 250.154H314.621" stroke="#101B2B" stroke-linecap="round" stroke-linejoin="round"/>
<path d="M109.444 271.978C139.645 271.978 164.128 269.008 164.128 265.345C164.128 261.682 139.645 258.713 109.444 258.713C79.243 258.713 54.7603 261.682 54.7603 265.345C54.7603 269.008 79.243 271.978 109.444 271.978Z" fill="#C6FF3E"/>
<path opacity="0.5" d="M109.444 271.978C139.645 271.978 164.128 269.008 164.128 265.345C164.128 261.682 139.645 258.713 109.444 258.713C79.243 258.713 54.7603 261.682 54.7603 265.345C54.7603 269.008 79.243 271.978 109.444 271.978Z" fill="white"/>
<path d="M195.345 268.654C210.4 268.654 222.604 267.173 222.604 265.345C222.604 263.518 210.4 262.037 195.345 262.037C180.291 262.037 168.087 263.518 168.087 265.345C168.087 267.173 180.291 268.654 195.345 268.654Z" fill="#C6FF3E"/>
<path opacity="0.5" d="M195.345 268.654C210.4 268.654 222.604 267.173 222.604 265.345C222.604 263.518 210.4 262.037 195.345 262.037C180.291 262.037 168.087 263.518 168.087 265.345C168.087 267.173 180.291 268.654 195.345 268.654Z" fill="white"/>
<path d="M120.337 46.8147C120.337 46.8147 116.105 43.4983 111.253 45.1603C106.401 46.8222 102.722 54.8827 101.413 61.4398C100.103 67.9969 95.0691 72.9677 96.2803 80.6579C97.4914 88.3482 106.25 89.5493 116.825 90.6825C127.399 91.8156 133.137 90.5314 138.118 83.5965C143.099 76.6617 140.987 68.2236 138.042 60.7599C135.098 53.2963 130.185 46.3614 126.113 45.0847C122.04 43.8081 120.337 46.8147 120.337 46.8147Z" fill="#101B2B" stroke="#101B2B" stroke-width="0.3" stroke-linecap="round" stroke-linejoin="round"/>
<path d="M102.866 86.301C103.579 86.6237 104.322 86.8767 105.084 87.0564" stroke="white" stroke-width="0.3" stroke-linecap="round" stroke-linejoin="round"/>
<path d="M119.3 52.216C117.584 56.0614 115.406 59.6839 112.812 63.0035C108.49 68.5559 98.9069 73.7911 98.2937 79.623C98.1962 80.4033 98.2659 81.1954 98.4982 81.9469C98.7305 82.6983 99.1201 83.3919 99.6412 83.9818" stroke="white" stroke-width="0.3" stroke-linecap="round" stroke-linejoin="round"/>
<path d="M136.862 80.0536C136.547 80.7814 136.145 81.4687 135.666 82.1008" stroke="white" stroke-width="0.3" stroke-linecap="round" stroke-linejoin="round"/>
<path d="M133.198 65.4738C133.198 65.4738 138.073 71.0867 137.596 77.0621" stroke="white" stroke-width="0.3" stroke-linecap="round" stroke-linejoin="round"/>
<path d="M118.369 49.1263C116.472 48.933 114.556 49.1963 112.781 49.8943C111.007 50.5922 109.427 51.7044 108.172 53.1376C108.001 53.329 107.839 53.5254 107.688 53.7269" stroke="white" stroke-width="0.3" stroke-linecap="round" stroke-linejoin="round"/>
<path d="M90.4439 191.517L89.5052 206.052C89.5052 206.052 85.4781 225.549 84.2064 233.587C82.9347 241.625 80.6108 253.855 80.1793 253.855C79.7478 253.855 72.814 258.048 70.5809 261.462C68.3478 264.877 71.1789 266.335 74.2674 265.24C77.3558 264.144 81.5494 261.047 82.9196 257.376C84.2897 253.704 84.9785 252.329 85.0618 251.733C85.1451 251.136 99.8001 211.884 101.253 207.699C102.707 203.513 105.795 191.192 105.795 191.192L112.994 166.822C112.994 166.822 120.708 191.872 120.791 192.99C120.874 194.108 128.762 258.146 129.118 260.541C129.473 262.936 129.375 264.643 130.828 265.157C132.282 265.67 135.711 265.67 137.512 265.67C139.314 265.67 145.567 266.614 148.648 265.844C151.728 265.073 152.077 264.56 149.934 263.019C147.792 261.478 135.893 260.496 134.795 256.008C134.712 255.668 134.621 189.742 134.621 189.742C134.621 189.742 133.591 167.94 131.881 161.791H92.2455L90.4439 191.517Z" fill="white" stroke="#101B2B" stroke-width="0.3" stroke-linecap="round" stroke-linejoin="round"/>
<path d="M74.2523 265.224C77.3332 264.114 81.5344 261.032 82.9045 257.36L83.1921 256.605C81.4435 258.463 78.6503 261.047 78.6503 261.047C78.4803 260.17 78.0983 259.348 77.5375 258.652C77.295 258.383 76.9835 258.186 76.6367 258.081C76.2899 257.975 75.9208 257.967 75.5694 258.055L78.5973 254.732C76.3264 256.137 72.2387 259.007 70.6339 261.47C68.3706 264.877 71.1714 266.335 74.2523 265.224Z" fill="#101B2B" stroke="#101B2B" stroke-width="0.3" stroke-linecap="round" stroke-linejoin="round"/>
<path d="M149.912 262.996C148.443 261.946 142.41 261.145 138.383 259.309C138.216 259.451 138.084 259.63 137.997 259.831C137.741 260.555 137.541 261.297 137.399 262.052L129.072 260.276V260.511C129.413 262.905 129.33 264.613 130.783 265.126C132.236 265.64 135.665 265.64 137.467 265.64C139.269 265.64 145.521 266.584 148.602 265.814C151.683 265.043 152.054 264.537 149.912 262.996Z" fill="#101B2B" stroke="#101B2B" stroke-width="0.3" stroke-linecap="round" stroke-linejoin="round"/>
<path d="M101.988 126.354C101.988 126.354 98.0591 128.159 93.3053 136.681C88.1049 145.98 88.9981 151.155 88.9224 162.365C88.8467 173.576 88.6196 192.212 88.6196 192.212C88.6196 192.212 103.002 196.057 113.312 195.453C123.622 194.849 136.725 192.514 136.725 192.514C136.725 192.514 133.932 154.531 131.29 143.6C128.648 132.669 127.059 127.736 127.059 127.736C121.953 128.442 116.779 128.518 111.654 127.963C102.896 127.109 101.988 126.354 101.988 126.354Z" fill="#101B2B" stroke="#101B2B" stroke-width="0.3" stroke-linecap="round" stroke-linejoin="round"/>
<path d="M118.528 159.918C118.921 161.209 119.285 162.516 119.602 163.831" stroke="white" stroke-width="0.3" stroke-linecap="round" stroke-linejoin="round"/>
<path d="M109.406 138.539C112.455 144.152 115.072 149.988 117.233 155.997" stroke="white" stroke-width="0.3" stroke-linecap="round" stroke-linejoin="round"/>
<path d="M198.411 119.102C197.957 118.8 190.523 117.636 190.523 117.636L189.07 117.039C189.07 117.039 198.078 117.795 198.154 117.379C198.229 116.964 198.532 116.548 197.927 116.473C197.321 116.397 185.701 114.048 185.701 114.048C185.701 114.048 188.646 111.268 189.025 110.664C189.403 110.059 189.933 108.858 189.327 108.858C188.722 108.858 188.57 109.236 187.738 109.765C186.905 110.293 183.658 111.57 182.757 112.326C181.856 113.081 179.131 115.038 179.131 115.038L147.656 110.716C147.656 110.716 136.604 97.1188 134.205 94.2104C132.537 92.2761 130.638 90.5534 128.55 89.081C126.234 88.0536 126.324 89.7684 126.324 89.7684L131.124 111.23C131.124 111.23 143.636 118.671 144.401 118.671C145.166 118.671 178.979 119.789 178.979 119.789C180.246 120.379 181.481 121.032 182.681 121.746C184.119 122.652 193.18 125.523 193.18 125.523C193.18 125.523 193.786 125.221 193.105 124.692C192.423 124.163 188.048 122.056 188.048 122.056L197.132 124.012C197.132 124.012 197.662 123.634 197.435 123.257C197.207 122.879 189.108 119.789 189.108 119.789L198.191 120.242C198.191 120.242 198.865 119.404 198.411 119.102Z" fill="white" stroke="#101B2B" stroke-width="0.3" stroke-linecap="round" stroke-linejoin="round"/>
<path d="M145.786 108.375C142.516 104.356 136.006 96.3558 134.235 94.2028C132.567 92.2685 130.668 90.5458 128.58 89.0734C126.264 88.046 126.355 89.7609 126.355 89.7609L131.154 111.223C131.154 111.223 136.801 114.577 140.737 116.783L145.786 108.375Z" fill="#008F70" stroke="#101B2B" stroke-width="0.3" stroke-linecap="round" stroke-linejoin="round"/>
<path d="M112.336 87.2377C112.336 87.2377 105.765 87.5399 101.738 91.9894C97.7109 96.4389 98.1878 106.237 99.8532 112.114C101.518 117.991 103.638 121.232 103.176 123.272C102.715 125.311 101.064 125.984 101.965 127.872C102.866 129.761 108.081 131.793 117.294 131.491C126.506 131.189 128.247 129.224 128.323 127.495C128.399 125.765 127.717 124.329 127.944 123.272C128.172 122.214 134.818 116.337 134.818 109.855C134.818 103.374 131.949 101.115 131.268 96.4389C130.586 91.7627 130.813 91.0904 128.02 89.0507C125.227 87.0111 116.06 85.9535 112.336 87.2377Z" fill="#008F70" stroke="#101B2B" stroke-width="0.3" stroke-linecap="round" stroke-linejoin="round"/>
<path d="M109.353 109.734C107.157 111.568 104.72 113.093 102.109 114.267" stroke="#101B2B" stroke-width="0.3" stroke-linecap="round" stroke-linejoin="round"/>
<path d="M110.08 110.46C110.08 110.46 108.452 115.702 104.463 118.596" stroke="#101B2B" stroke-width="0.3" stroke-linecap="round" stroke-linejoin="round"/>
<path d="M126.377 91.9894L127.134 99.2188L123.963 95.5248L126.377 91.9894Z" fill="#008F70" stroke="#101B2B" stroke-width="0.3" stroke-linecap="round" stroke-linejoin="round"/>
<path d="M122.154 99.8232L126.377 91.9894L122.524 87.842L122.154 99.8232Z" fill="#008F70" stroke="#101B2B" stroke-width="0.3" stroke-linecap="round" stroke-linejoin="round"/>
<path d="M113.993 74.4257C114.657 77.0379 114.988 79.7232 114.977 82.4181C114.955 84.1628 114.778 85.9021 114.448 87.6155L122.116 99.8232L124.303 88.4918L125.742 80.6504C125.742 80.6504 117.014 80.1518 113.993 74.4257Z" fill="white" stroke="#101B2B" stroke-width="0.3" stroke-linecap="round" stroke-linejoin="round"/>
<path d="M121.699 93.2661L122.153 99.8232L119.883 96.2802L121.699 93.2661Z" fill="#008F70" stroke="#101B2B" stroke-width="0.3" stroke-linecap="round" stroke-linejoin="round"/>
<path d="M111.881 87.3133L118.906 99.8988L121.699 93.2661L114.22 83.0149L111.881 87.3133Z" fill="#008F70" stroke="#101B2B" stroke-width="0.3" stroke-linecap="round" stroke-linejoin="round"/>
<path d="M234.95 93.1829H171.205V145.383H234.95V93.1829Z" fill="#C6FF3E"/>
<path opacity="0.2" d="M234.95 93.1829H171.205V145.383H234.95V93.1829Z" fill="#101B2B"/>
<path d="M234.95 93.1829H171.205V145.383H234.95V93.1829Z" stroke="#101B2B" stroke-width="0.3" stroke-linecap="round" stroke-linejoin="round"/>
<path d="M221.453 93.1829H157.708V145.383H221.453V93.1829Z" fill="#C6FF3E" stroke="#101B2B" stroke-width="0.3" stroke-linecap="round" stroke-linejoin="round"/>
<path d="M245.442 162.954C243.398 159.721 234.943 145.383 234.943 145.383H221.453L228.395 162.954H245.442Z" fill="#C6FF3E"/>
<path opacity="0.2" d="M245.442 162.954C243.398 159.721 234.943 145.383 234.943 145.383H221.453L228.395 162.954H245.442Z" fill="#101B2B"/>
<path d="M245.442 162.954C243.398 159.721 234.943 145.383 234.943 145.383H221.453L228.395 162.954H245.442Z" stroke="#101B2B" stroke-width="0.3" stroke-linecap="round" stroke-linejoin="round"/>
<path d="M147.172 162.954C149.215 159.721 157.671 145.383 157.671 145.383H171.168L164.226 162.954H147.172Z" fill="#C6FF3E" stroke="#101B2B" stroke-width="0.3" stroke-linecap="round" stroke-linejoin="round"/>
<path d="M157.663 145.383L151.797 162.954H218.372L221.453 145.383H157.663Z" fill="#C6FF3E" stroke="#101B2B" stroke-width="0.3" stroke-linecap="round" stroke-linejoin="round"/>
<path d="M243.148 112.069V129.549" stroke="#101B2B" stroke-width="0.3" stroke-linecap="round" stroke-linejoin="round"/>
<path d="M246.464 119.631V133.802" stroke="#101B2B" stroke-width="0.3" stroke-linecap="round" stroke-linejoin="round"/>
<path d="M150.858 129.549V140.412" stroke="#101B2B" stroke-width="0.3" stroke-linecap="round" stroke-linejoin="round"/>
<path d="M148.019 135.691V144.19" stroke="#101B2B" stroke-width="0.3" stroke-linecap="round" stroke-linejoin="round"/>
<path d="M101.382 106.003C103.644 108.547 106.265 110.749 109.164 112.537C113.706 115.249 130.359 124.669 131.669 125.198C132.978 125.727 172.75 119.245 172.75 119.245C174.016 119.835 175.251 120.488 176.451 121.202C177.89 122.108 186.951 124.979 186.951 124.979C186.951 124.979 187.556 124.677 186.875 124.148C186.194 123.619 181.818 121.512 181.818 121.512L190.902 123.468C190.902 123.468 191.432 123.09 191.205 122.713C190.978 122.335 182.878 119.245 182.878 119.245L191.962 119.698C191.962 119.698 192.643 118.868 192.189 118.565C191.735 118.263 182.447 116.156 182.447 116.156C182.447 116.156 192.34 115.325 192.416 114.947C192.492 114.569 192.794 114.116 192.189 114.04C191.583 113.965 179.199 112.756 179.199 112.756C179.199 112.756 182.447 110.724 182.825 110.12C183.204 109.515 183.733 108.314 183.128 108.314C182.522 108.314 182.371 108.692 181.538 109.221C180.706 109.749 177.458 111.026 176.557 111.782C175.657 112.537 172.931 114.494 172.931 114.494L136.529 114.569L113.948 96.7863" fill="#008F70"/>
<path d="M101.382 106.003C103.644 108.547 106.265 110.749 109.164 112.537C113.706 115.249 130.359 124.669 131.669 125.198C132.978 125.727 172.75 119.245 172.75 119.245C174.016 119.835 175.251 120.488 176.451 121.202C177.89 122.108 186.951 124.979 186.951 124.979C186.951 124.979 187.556 124.677 186.875 124.148C186.194 123.619 181.818 121.512 181.818 121.512L190.902 123.468C190.902 123.468 191.432 123.09 191.205 122.713C190.978 122.335 182.878 119.245 182.878 119.245L191.962 119.698C191.962 119.698 192.643 118.868 192.189 118.565C191.735 118.263 182.447 116.156 182.447 116.156C182.447 116.156 192.34 115.325 192.416 114.947C192.492 114.569 192.794 114.116 192.189 114.04C191.583 113.965 179.199 112.756 179.199 112.756C179.199 112.756 182.447 110.724 182.825 110.12C183.204 109.515 183.733 108.314 183.128 108.314C182.522 108.314 182.371 108.692 181.538 109.221C180.706 109.749 177.458 111.026 176.557 111.782C175.657 112.537 172.931 114.494 172.931 114.494L136.529 114.569L113.948 96.7863" stroke="#101B2B" stroke-width="0.3" stroke-linecap="round" stroke-linejoin="round"/>
<path d="M192.158 114.048C191.553 113.972 179.169 112.764 179.169 112.764C179.169 112.764 182.416 110.732 182.795 110.127C183.173 109.523 183.703 108.322 183.097 108.322C182.492 108.322 182.34 108.699 181.508 109.228C180.675 109.757 177.428 111.034 176.527 111.789C175.626 112.545 172.901 114.501 172.901 114.501L136.498 114.577L132.441 111.381C130.927 114.033 128.096 119.003 126.256 122.282C129.087 123.861 131.237 125.024 131.669 125.206C132.956 125.734 172.75 119.253 172.75 119.253C174.016 119.842 175.251 120.495 176.451 121.209C177.889 122.116 186.95 124.986 186.95 124.986C186.95 124.986 187.556 124.684 186.875 124.156C186.193 123.627 181.818 121.519 181.818 121.519L190.902 123.476C190.902 123.476 191.432 123.098 191.205 122.72C190.978 122.342 182.878 119.253 182.878 119.253L191.962 119.706C191.962 119.706 192.643 118.875 192.189 118.573C191.735 118.271 182.446 116.163 182.446 116.163C182.446 116.163 192.34 115.332 192.416 114.954C192.491 114.577 192.764 114.146 192.158 114.048Z" fill="white" stroke="#101B2B" stroke-width="0.3" stroke-linecap="round" stroke-linejoin="round"/>
<path d="M131.199 68.0951C131.327 67.9382 131.497 67.8206 131.689 67.7559C131.881 67.6912 132.088 67.682 132.285 67.7294C132.482 67.7768 132.662 67.8789 132.803 68.0238C132.944 68.1687 133.042 68.3505 133.084 68.5484C133.21 69.369 133.168 70.2067 132.96 71.0106C132.752 71.8144 132.382 72.5676 131.873 73.2245C131.04 74.0554 130.283 74.2821 130.283 73.2245C130.496 71.4994 130.802 69.7872 131.199 68.0951Z" fill="white" stroke="#101B2B" stroke-width="0.3" stroke-linecap="round" stroke-linejoin="round"/>
<path d="M121.911 54.8902C121.647 58.5669 120.071 62.0273 117.468 64.6428C115.045 67.0217 112.304 69.0553 109.323 70.6862C109.323 70.6862 109.77 73.0507 110.655 73.791C111.541 74.5314 113.32 74.3803 113.32 74.3803C114.349 77.1903 116.024 79.7205 118.21 81.7684C121.768 85.0167 125.916 84.7221 128.285 79.8496C130.654 74.9771 131.843 70.097 131.548 67.2868L131.253 64.4766C131.253 64.4766 123.547 60.2084 121.911 54.8902Z" fill="white" stroke="#101B2B" stroke-width="0.3" stroke-linecap="round" stroke-linejoin="round"/>
<path d="M121.465 69.5003C121.841 69.5003 122.146 68.9591 122.146 68.2916C122.146 67.624 121.841 67.0829 121.465 67.0829C121.088 67.0829 120.783 67.624 120.783 68.2916C120.783 68.9591 121.088 69.5003 121.465 69.5003Z" fill="#101B2B"/>
<path d="M125.166 79.1471C125.543 79.1471 125.848 78.6059 125.848 77.9384C125.848 77.2708 125.543 76.7297 125.166 76.7297C124.79 76.7297 124.485 77.2708 124.485 77.9384C124.485 78.6059 124.79 79.1471 125.166 79.1471Z" fill="#101B2B"/>
<path d="M128.035 69.5003C128.412 69.5003 128.717 68.9591 128.717 68.2916C128.717 67.624 128.412 67.0829 128.035 67.0829C127.659 67.0829 127.354 67.624 127.354 68.2916C127.354 68.9591 127.659 69.5003 128.035 69.5003Z" fill="#101B2B"/>
<path d="M126.658 67.0073C126.398 67.9123 126.321 68.8598 126.431 69.7949C126.658 71.0791 127.717 73.2623 126.809 73.64C126.394 73.8279 125.936 73.899 125.484 73.8458C125.032 73.7925 124.602 73.6169 124.243 73.3378" stroke="#101B2B" stroke-width="0.3" stroke-linecap="round" stroke-linejoin="round"/>
<path d="M119.504 66.1083C119.504 66.1083 119.86 63.7892 122.895 64.0611" stroke="#101B2B" stroke-width="0.3" stroke-linecap="round" stroke-linejoin="round"/>
<path d="M127.634 64.7712C127.634 64.7712 130.465 62.5049 131.419 66.6447" stroke="#101B2B" stroke-width="0.3" stroke-linecap="round" stroke-linejoin="round"/>
</svg>
