<svg width="17" height="21" viewBox="0 0 17 21" fill="none" xmlns="http://www.w3.org/2000/svg">
<circle cx="6.52602" cy="9.39423" r="5.52602" stroke="#83878C" stroke-width="1.5"/>
<path d="M5.44646 20C5.44646 20.4142 5.78225 20.75 6.19646 20.75C6.61067 20.75 6.94646 20.4142 6.94646 20H5.44646ZM5.44646 14.9203V20H6.94646V14.9203H5.44646Z" fill="#83878C"/>
<path d="M14.6547 2.65573C14.9476 2.36283 14.9476 1.88796 14.6547 1.59507C14.3618 1.30217 13.8869 1.30217 13.5941 1.59507L14.6547 2.65573ZM11.0628 6.24764L14.6547 2.65573L13.5941 1.59507L10.0021 5.18698L11.0628 6.24764Z" fill="#83878C"/>
<path d="M14.4915 4.59651V1.8335" stroke="#83878C" stroke-width="1.5" stroke-linecap="round"/>
<path d="M11.7283 1.8335L14.4913 1.8335" stroke="#83878C" stroke-width="1.5" stroke-linecap="round"/>
<path d="M4.31567 18.2359H8.18389" stroke="#83878C" stroke-width="1.5" stroke-linecap="round"/>
</svg>
