<svg width="9" height="10" viewBox="0 0 9 10" fill="none" xmlns="http://www.w3.org/2000/svg">
<path d="M8.20312 0H0.546875C0.401835 0 0.262735 0.0877973 0.160176 0.244078C0.057617 0.400358 0 0.61232 0 0.833333V9.16667C0 9.38768 0.057617 9.59964 0.160176 9.75592C0.262735 9.9122 0.401835 10 0.546875 10H8.20312C8.34817 10 8.48727 9.9122 8.58982 9.75592C8.69238 9.59964 8.75 9.38768 8.75 9.16667V0.833333C8.75 0.61232 8.69238 0.400358 8.58982 0.244078C8.48727 0.0877973 8.34817 0 8.20312 0ZM4.64844 6.66667H1.91406C1.84154 6.66667 1.77199 6.62277 1.72071 6.54463C1.66943 6.46649 1.64062 6.36051 1.64062 6.25C1.64062 6.13949 1.66943 6.03351 1.72071 5.95537C1.77199 5.87723 1.84154 5.83333 1.91406 5.83333H4.64844C4.72096 5.83333 4.79051 5.87723 4.84179 5.95537C4.89307 6.03351 4.92188 6.13949 4.92188 6.25C4.92188 6.36051 4.89307 6.46649 4.84179 6.54463C4.79051 6.62277 4.72096 6.66667 4.64844 6.66667ZM6.83594 5H1.91406C1.84154 5 1.77199 4.9561 1.72071 4.87796C1.66943 4.79982 1.64062 4.69384 1.64062 4.58333C1.64062 4.47283 1.66943 4.36685 1.72071 4.2887C1.77199 4.21057 1.84154 4.16667 1.91406 4.16667H6.83594C6.90846 4.16667 6.97801 4.21057 7.02929 4.2887C7.08057 4.36685 7.10938 4.47283 7.10938 4.58333C7.10938 4.69384 7.08057 4.79982 7.02929 4.87796C6.97801 4.9561 6.90846 5 6.83594 5ZM6.83594 3.33333H1.91406C1.84154 3.33333 1.77199 3.28943 1.72071 3.21129C1.66943 3.13315 1.64062 3.02717 1.64062 2.91667C1.64062 2.80616 1.66943 2.70018 1.72071 2.62204C1.77199 2.5439 1.84154 2.5 1.91406 2.5H6.83594C6.90846 2.5 6.97801 2.5439 7.02929 2.62204C7.08057 2.70018 7.10938 2.80616 7.10938 2.91667C7.10938 3.02717 7.08057 3.13315 7.02929 3.21129C6.97801 3.28943 6.90846 3.33333 6.83594 3.33333Z" fill="#83878C"/>
</svg>
