<svg width="19" height="20" viewBox="0 0 19 20" fill="none" xmlns="http://www.w3.org/2000/svg">
<path d="M2 0H11C11.5304 0 12.0391 0.210714 12.4142 0.585786C12.7893 0.960859 13 1.46957 13 2V3C13 3.26522 12.8946 3.51957 12.7071 3.70711C12.5196 3.89464 12.2652 4 12 4C11.7348 4 11.4804 3.89464 11.2929 3.70711C11.1054 3.51957 11 3.26522 11 3V2H2V18H11V17C11 16.7348 11.1054 16.4804 11.2929 16.2929C11.4804 16.1054 11.7348 16 12 16C12.2652 16 12.5196 16.1054 12.7071 16.2929C12.8946 16.4804 13 16.7348 13 17V18C13 18.5304 12.7893 19.0391 12.4142 19.4142C12.0391 19.7893 11.5304 20 11 20H2C1.46957 20 0.960859 19.7893 0.585786 19.4142C0.210714 19.0391 0 18.5304 0 18V2C0 1.46957 0.210714 0.960859 0.585786 0.585786C0.960859 0.210714 1.46957 0 2 0Z" fill="#EF4F5B"/>
<path d="M12.795 14.295C13.185 14.685 13.815 14.685 14.205 14.295L17.793 10.707C17.9805 10.5195 18.0858 10.2652 18.0858 10C18.0858 9.73484 17.9805 9.48053 17.793 9.293L14.205 5.705C14.0149 5.5332 13.7661 5.441 13.5099 5.44746C13.2538 5.45393 13.0099 5.55857 12.8287 5.73974C12.6476 5.92092 12.5429 6.16479 12.5365 6.42093C12.53 6.67708 12.6222 6.92591 12.794 7.116L14.67 9H6C5.73478 9 5.48043 9.10536 5.29289 9.2929C5.10536 9.48043 5 9.73479 5 10C5 10.2652 5.10536 10.5196 5.29289 10.7071C5.48043 10.8946 5.73478 11 6 11H14.67L12.794 12.884C12.6073 13.0714 12.5026 13.3252 12.5028 13.5897C12.503 13.8542 12.6081 14.1079 12.795 14.295Z" fill="#EF4F5B"/>
</svg>
