<svg width="130" height="40" viewBox="0 0 130 40" fill="none" xmlns="http://www.w3.org/2000/svg">
<path d="M49.987 21.694C50.083 21.694 50.179 21.5981 50.275 21.4064C50.371 21.2146 50.419 20.8996 50.419 20.4613V11.6273C50.419 11.326 50.3847 11.148 50.3162 11.0932C50.2476 11.0384 50.0076 11.011 49.5962 11.011H48.0946C47.2993 11.011 46.6547 11.1 46.1611 11.2781C45.6811 11.4424 45.3657 11.5999 45.2148 11.7506L45.6262 9.77834V9.36746H57.5156V9.77834L57.927 11.7506C57.7761 11.5999 57.4539 11.4424 56.9602 11.2781C56.4802 11.1 55.8426 11.011 55.0472 11.011H53.5662C53.1411 11.011 52.8942 11.0384 52.8257 11.0932C52.7571 11.148 52.7228 11.326 52.7228 11.6273V20.4613C52.7228 20.8996 52.7708 21.2146 52.8668 21.4064C52.9628 21.5981 53.0588 21.694 53.1548 21.694H49.987Z" fill="#008F70"/>
<path d="M59.3606 21.694C59.4566 21.694 59.5526 21.5981 59.6486 21.4064C59.7446 21.2146 59.7926 20.8996 59.7926 20.4613V10.6001C59.7926 10.1618 59.7446 9.85367 59.6486 9.67562C59.5526 9.48388 59.4566 9.38116 59.3606 9.36746H70.9414V9.77834L71.3528 11.7506C71.01 11.5999 70.4066 11.4424 69.5427 11.2781C68.6787 11.1 67.6365 11.011 66.4161 11.011H62.9398C62.5284 11.011 62.2815 11.0452 62.1992 11.1137C62.1307 11.1685 62.0964 11.3397 62.0964 11.6273V13.9694C62.0964 14.2707 62.1307 14.4487 62.1992 14.5035C62.2815 14.5583 62.5215 14.5857 62.9192 14.5857H66.3132C67.1086 14.5857 67.7462 14.5446 68.2262 14.4624C68.7199 14.3666 69.0421 14.2707 69.193 14.1748C69.1381 14.3529 69.0764 14.5652 69.0079 14.8117C68.9393 15.0582 68.8844 15.3047 68.8433 15.5513C68.8022 15.7978 68.7816 16.0238 68.7816 16.2292H62.9192C62.5215 16.2292 62.2815 16.2566 62.1992 16.3114C62.1307 16.3525 62.0964 16.5306 62.0964 16.8456V19.393C62.0964 19.7081 62.1307 19.893 62.1992 19.9477C62.2678 20.0025 62.5078 20.0299 62.9192 20.0299H68.905C69.7004 20.0299 70.338 19.9409 70.818 19.7628C71.3117 19.5711 71.6339 19.3862 71.7848 19.2082L71.3734 21.0571V21.694H59.3606Z" fill="#008F70"/>
<path d="M73.422 21.694C73.518 21.694 73.614 21.5981 73.71 21.4064C73.806 21.2146 73.854 20.8996 73.854 20.4613V10.6001C73.854 10.1618 73.806 9.85367 73.71 9.67562C73.614 9.48388 73.518 9.38116 73.422 9.36746H76.6103C76.5966 9.40855 76.6446 9.53181 76.7543 9.73726C76.8777 9.9427 77.0971 10.244 77.4126 10.6412C77.5085 10.7645 77.7074 11.011 78.0091 11.3808C78.3245 11.7506 78.7153 12.2094 79.1816 12.7573C79.6478 13.2914 80.1483 13.8803 80.6832 14.5241C81.2317 15.1541 81.7802 15.7978 82.3287 16.4552C82.891 17.0989 83.4258 17.7153 83.9332 18.3042H83.9743V10.6001C83.9743 10.1618 83.9263 9.85367 83.8303 9.67562C83.7343 9.48388 83.6384 9.38116 83.5424 9.36746H86.7101C86.6141 9.36746 86.5181 9.46333 86.4221 9.65508C86.3261 9.84683 86.2781 10.1687 86.2781 10.6207V20.4613C86.2781 20.8996 86.3261 21.2146 86.4221 21.4064C86.5181 21.5981 86.6141 21.694 86.7101 21.694H84.0155C84.0292 21.6529 83.9743 21.5296 83.8509 21.3242C83.7275 21.1051 83.5081 20.8038 83.1927 20.4203C82.987 20.16 82.6853 19.7971 82.2876 19.3314C81.9036 18.852 81.4648 18.3111 80.9711 17.7084C80.4775 17.0921 79.9495 16.4484 79.3873 15.7773C78.8387 15.1062 78.2902 14.435 77.7417 13.7639C77.2069 13.0928 76.6995 12.4696 76.2195 11.8944H76.1578V20.4613C76.1578 20.8996 76.2058 21.2146 76.3018 21.4064C76.3978 21.5981 76.4938 21.694 76.5898 21.694H73.422Z" fill="#008F70"/>
<path d="M89.1708 21.694C89.2668 21.694 89.3628 21.5981 89.4588 21.4064C89.5547 21.2146 89.6027 20.8996 89.6027 20.4613V10.6001C89.6027 10.1618 89.5547 9.85367 89.4588 9.67562C89.3628 9.48388 89.2668 9.38116 89.1708 9.36746H92.3591C92.3454 9.40855 92.3934 9.53181 92.5031 9.73726C92.6265 9.9427 92.8459 10.244 93.1613 10.6412C93.2573 10.7645 93.4562 11.011 93.7578 11.3808C94.0732 11.7506 94.4641 12.2094 94.9303 12.7573C95.3966 13.2914 95.8971 13.8803 96.4319 14.5241C96.9804 15.1541 97.529 15.7978 98.0775 16.4552C98.6397 17.0989 99.1746 17.7153 99.682 18.3042H99.7231V10.6001C99.7231 10.1618 99.6751 9.85367 99.5791 9.67562C99.4831 9.48388 99.3871 9.38116 99.2911 9.36746H102.459C102.363 9.36746 102.267 9.46333 102.171 9.65508C102.075 9.84683 102.027 10.1687 102.027 10.6207V20.4613C102.027 20.8996 102.075 21.2146 102.171 21.4064C102.267 21.5981 102.363 21.694 102.459 21.694H99.7642C99.7779 21.6529 99.7231 21.5296 99.5997 21.3242C99.4762 21.1051 99.2568 20.8038 98.9414 20.4203C98.7357 20.16 98.434 19.7971 98.0364 19.3314C97.6524 18.852 97.2136 18.3111 96.7199 17.7084C96.2262 17.0921 95.6983 16.4484 95.136 15.7773C94.5875 15.1062 94.039 14.435 93.4904 13.7639C92.9556 13.0928 92.4482 12.4696 91.9683 11.8944H91.9066V20.4613C91.9066 20.8996 91.9546 21.2146 92.0506 21.4064C92.1465 21.5981 92.2425 21.694 92.3385 21.694H89.1708Z" fill="#008F70"/>
<path d="M104.92 21.694C105.016 21.694 105.112 21.5981 105.208 21.4064C105.304 21.2146 105.352 20.8996 105.352 20.4613V10.6001C105.352 10.1618 105.304 9.85367 105.208 9.67562C105.112 9.48388 105.016 9.38116 104.92 9.36746H108.087C107.991 9.36746 107.895 9.46333 107.799 9.65508C107.703 9.84683 107.655 10.1687 107.655 10.6207V20.4613C107.655 20.8996 107.703 21.2146 107.799 21.4064C107.895 21.5981 107.991 21.694 108.087 21.694H104.92Z" fill="#008F70"/>
<path d="M117.023 21.8994C115.528 21.8994 114.205 21.831 113.053 21.694C111.901 21.557 111.072 21.4201 110.564 21.2831V20.8722L110.153 18.674C110.345 18.8931 110.708 19.126 111.243 19.3725C111.792 19.619 112.518 19.8313 113.423 20.0094C114.328 20.1737 115.405 20.2559 116.653 20.2559C117.777 20.2559 118.628 20.1806 119.204 20.0299C119.793 19.8656 120.191 19.6464 120.397 19.3725C120.616 19.0849 120.726 18.7562 120.726 18.3864C120.726 17.9481 120.547 17.5989 120.191 17.3386C119.834 17.0784 119.3 16.873 118.586 16.7223C117.887 16.5579 117.016 16.4141 115.974 16.2909C114.616 16.1128 113.526 15.88 112.703 15.5924C111.881 15.291 111.284 14.8939 110.914 14.4008C110.544 13.9077 110.358 13.2846 110.358 12.5313C110.358 11.8876 110.55 11.3123 110.934 10.8056C111.332 10.2988 111.929 9.90161 112.724 9.61399C113.519 9.31268 114.534 9.16202 115.768 9.16202C117.195 9.16202 118.436 9.2305 119.491 9.36746C120.547 9.50442 121.295 9.64138 121.734 9.77834V10.1892L122.351 12.0382C122.063 11.8602 121.617 11.6753 121.014 11.4835C120.424 11.2918 119.711 11.1343 118.874 11.011C118.038 10.874 117.105 10.8056 116.077 10.8056C115.227 10.8056 114.548 10.8672 114.04 10.9905C113.547 11.1137 113.19 11.2986 112.971 11.5451C112.765 11.778 112.662 12.0656 112.662 12.408C112.662 12.86 112.827 13.2229 113.156 13.4969C113.499 13.7708 113.992 13.9831 114.637 14.1337C115.295 14.2844 116.091 14.4145 117.023 14.5241C118.504 14.6884 119.683 14.9213 120.561 15.2226C121.439 15.5239 122.07 15.9279 122.454 16.4347C122.838 16.9414 123.029 17.5989 123.029 18.4069C123.029 18.9411 122.899 19.4273 122.639 19.8656C122.392 20.2901 122.015 20.6599 121.507 20.975C121 21.2763 120.369 21.5091 119.615 21.6735C118.874 21.8241 118.01 21.8994 117.023 21.8994Z" fill="#008F70"/>
<path d="M74.847 29.4803L74.7924 28.2854L77.6528 25.3291H78.7908L76.4136 27.8431L75.8524 28.4561L74.847 29.4803ZM73.9429 30.7605V25.3291H74.9561V30.7605H73.9429ZM77.7464 30.7605L75.6576 28.2854L76.3279 27.5482L78.9311 30.7605H77.7464Z" fill="#008F70"/>
<path d="M88.9115 25.3291H89.9247V30.7605H88.9115V25.3291ZM86.09 30.7605H85.0768V25.3291H86.09V30.7605ZM88.9894 28.4328H86.0043V27.5715H88.9894V28.4328Z" fill="#008F70"/>
<path d="M97.7778 27.587H100.49V28.4173H97.7778V27.587ZM97.8557 29.9148H100.934V30.7605H96.8425V25.3291H100.825V26.1749H97.8557V29.9148Z" fill="#008F70"/>
<path d="M107.52 30.7605V25.3291H108.533V29.907H111.386V30.7605H107.52Z" fill="#008F70"/>
<path d="M120.099 30.8381C119.673 30.8381 119.28 30.7683 118.922 30.6286C118.563 30.489 118.252 30.295 117.987 30.0467C117.722 29.7932 117.516 29.4984 117.371 29.1621C117.225 28.8207 117.153 28.4483 117.153 28.0448C117.153 27.6413 117.225 27.2715 117.371 26.9353C117.516 26.5939 117.722 26.299 117.987 26.0507C118.252 25.7973 118.563 25.6007 118.922 25.461C119.28 25.3214 119.67 25.2515 120.091 25.2515C120.517 25.2515 120.907 25.3214 121.26 25.461C121.619 25.6007 121.93 25.7973 122.195 26.0507C122.46 26.299 122.666 26.5939 122.811 26.9353C122.957 27.2715 123.029 27.6413 123.029 28.0448C123.029 28.4483 122.957 28.8207 122.811 29.1621C122.666 29.5035 122.46 29.7984 122.195 30.0467C121.93 30.295 121.619 30.489 121.26 30.6286C120.907 30.7683 120.52 30.8381 120.099 30.8381ZM120.091 29.9536C120.366 29.9536 120.621 29.907 120.855 29.8139C121.089 29.7208 121.291 29.5889 121.463 29.4182C121.634 29.2423 121.767 29.0406 121.86 28.813C121.959 28.5802 122.008 28.3242 122.008 28.0448C122.008 27.7655 121.959 27.512 121.86 27.2844C121.767 27.0516 121.634 26.8499 121.463 26.6792C121.291 26.5033 121.089 26.3688 120.855 26.2757C120.621 26.1826 120.366 26.1361 120.091 26.1361C119.816 26.1361 119.561 26.1826 119.327 26.2757C119.099 26.3688 118.896 26.5033 118.719 26.6792C118.548 26.8499 118.413 27.0516 118.314 27.2844C118.221 27.512 118.174 27.7655 118.174 28.0448C118.174 28.319 118.221 28.5724 118.314 28.8052C118.413 29.038 118.548 29.2423 118.719 29.4182C118.891 29.5889 119.093 29.7208 119.327 29.8139C119.561 29.907 119.816 29.9536 120.091 29.9536Z" fill="#008F70"/>
<path fill-rule="evenodd" clip-rule="evenodd" d="M124.84 2.90503H41.5964V37.095H124.84C125.715 37.095 126.423 36.3946 126.423 35.5307V4.46927C126.423 3.60537 125.715 2.90503 124.84 2.90503ZM38.6558 0V40H124.84C127.339 40 129.364 37.999 129.364 35.5307V4.46927C129.364 2.00096 127.339 0 124.84 0H38.6558Z" fill="#008F70"/>
<path d="M0.878906 4.46927C0.878906 2.00096 2.90442 0 5.40301 0H41.3697V40H5.40301C2.90442 40 0.878906 37.999 0.878906 35.5307V4.46927Z" fill="#008F70"/>
<path fill-rule="evenodd" clip-rule="evenodd" d="M6.28415 13.0575C8.80333 7.78759 14.1194 4.07838 20.3404 3.79886C16.822 8.95236 11.3542 11.9009 6.28415 13.0575ZM5.36204 15.4715C4.94698 16.8954 4.72461 18.3999 4.72461 19.9557C4.72461 25.4115 7.45902 30.2363 11.6478 33.1657C16.15 25.1961 17.0656 17.786 14.9699 11.8458C11.8737 13.7572 8.50692 14.9328 5.36204 15.4715ZM13.5392 34.307C15.8002 35.4714 18.3707 36.1296 21.0969 36.1296C25.2744 36.1296 29.0865 34.584 31.9791 32.04C28.2564 30.0714 25.6718 28.0949 24.0438 26.1393C21.6928 23.315 21.3089 20.477 22.4723 17.9328C23.5831 15.5036 26.0133 13.5492 28.8308 12.1266C30.4558 11.3062 32.2588 10.6373 34.1135 10.1439C31.4671 6.72301 27.4703 4.37606 22.9093 3.87987C21.2804 6.60638 19.1824 8.81802 16.8542 10.5627C19.4933 17.383 18.4275 25.6861 13.5392 34.307ZM35.3996 12.0785C33.4369 12.5462 31.5233 13.2255 29.8392 14.0758C27.2211 15.3976 25.3043 17.0567 24.4916 18.8339C23.7316 20.4962 23.8478 22.4575 25.7553 24.7489C27.2199 26.5084 29.7181 28.4212 33.5934 30.4059C36.0111 27.5872 37.4692 23.9397 37.4692 19.9557C37.4692 17.096 36.7179 14.4095 35.3996 12.0785Z" fill="white"/>
</svg>
