<svg width="10" height="12" viewBox="0 0 10 12" fill="none" xmlns="http://www.w3.org/2000/svg">
<path d="M4.71429 0C3.46443 0.00147449 2.26619 0.49863 1.38241 1.38241C0.498635 2.26619 0.0014795 3.46443 5.01552e-06 4.71429C-0.00149194 5.73567 0.332139 6.72934 0.949718 7.54286C0.949718 7.54286 1.07829 7.71214 1.09929 7.73657L4.71429 12L8.331 7.73443C8.34985 7.71171 8.47885 7.54286 8.47885 7.54286L8.47928 7.54157C9.09655 6.72841 9.43003 5.7352 9.42857 4.71429C9.42709 3.46443 8.92994 2.26619 8.04616 1.38241C7.16238 0.49863 5.96414 0.00147449 4.71429 0ZM4.71429 6.42857C4.37523 6.42857 4.04379 6.32803 3.76188 6.13966C3.47997 5.95129 3.26024 5.68356 3.13049 5.37031C3.00074 5.05707 2.9668 4.71238 3.03294 4.37985C3.09909 4.04731 3.26236 3.74185 3.5021 3.5021C3.74185 3.26236 4.04731 3.09909 4.37985 3.03294C4.71238 2.96679 5.05707 3.00074 5.37031 3.13049C5.68356 3.26024 5.95129 3.47997 6.13966 3.76188C6.32803 4.04379 6.42857 4.37523 6.42857 4.71429C6.428 5.16877 6.24721 5.60447 5.92584 5.92584C5.60447 6.24721 5.16877 6.428 4.71429 6.42857Z" fill="#83878C"/>
</svg>
