<svg width="32" height="23" viewBox="0 0 32 23" fill="none" xmlns="http://www.w3.org/2000/svg">
<path d="M30.4054 3.59707C27.8868 1.07294 23.2799 1.59671 20.117 4.7681C18.2632 6.62582 17.3237 8.97782 17.3634 11.1171C17.2187 13.3368 16.8298 15.4813 15.8223 16.7787C15.7702 16.8458 15.6714 16.8497 15.6114 16.7896C15.5549 16.7328 15.4629 16.7327 15.4063 16.7895L11.3676 20.8373C10.875 21.331 10.8748 22.1301 11.3672 22.624C11.8614 23.1198 12.6643 23.12 13.1587 22.6244L17.2172 18.5571C17.2604 18.5138 17.2606 18.4438 17.2177 18.4002C17.1723 18.354 17.1755 18.279 17.2262 18.2386C18.5165 17.212 20.6691 16.8176 22.8985 16.6704C25.0336 16.712 27.3823 15.7706 29.2375 13.9111C32.4026 10.7397 32.9248 6.12195 30.4054 3.59707ZM30.8401 7.71464L30.3113 7.18534L30.7217 6.77473C30.7883 7.07992 30.8272 7.39397 30.8401 7.71464ZM30.5507 6.1776L29.9285 6.80164L28.7613 5.63135L29.6873 4.70286C30.0665 5.13458 30.3596 5.63521 30.5507 6.1776ZM19.8095 11.4927L21.2739 10.0243L22.4422 11.1949L20.9771 12.6627L19.8095 11.4927ZM20.5947 13.0482L19.6669 13.9771C19.2872 13.5452 18.9941 13.0442 18.8034 12.5012L19.426 11.8779L20.5947 13.0482ZM25.3612 5.92843L26.8248 4.46069L27.9924 5.63172L26.5277 7.09983L25.3612 5.92843ZM27.6952 9.03863L26.2298 10.5101L25.0608 9.34015L26.5277 7.86908L27.6952 9.03863ZM26.1441 7.48427L24.6772 8.9546L23.5097 7.78431L24.9766 6.31362L26.1441 7.48427ZM24.2933 9.34015L22.8261 10.8105L21.6578 9.63944L23.1254 8.16912L24.2933 9.34015ZM23.1254 7.3995L21.9608 6.23179L23.4277 4.7611L24.5916 5.92843L23.1254 7.3995ZM22.7419 7.78468L21.2739 9.25463L20.1096 8.08692L21.5758 6.61586L22.7419 7.78468ZM22.8261 11.5805L23.9933 12.75L22.5289 14.2185L21.3621 13.0475L22.8261 11.5805ZM23.2111 11.1949L24.6772 9.72459L25.8448 10.8949L24.3768 12.3656L23.2111 11.1949ZM26.2298 11.2793L27.3926 12.4474L25.9253 13.9177L24.76 12.75L26.2298 11.2793ZM26.6126 10.8945L28.0795 9.42419L29.2449 10.5915L27.778 12.0622L26.6126 10.8945ZM26.912 7.48464L28.377 6.01616L29.5442 7.18571L28.081 8.65419L26.912 7.48464ZM29.3037 4.31804L28.377 5.2469L27.2084 4.07588L27.8302 3.45258C28.3724 3.64334 28.8727 3.9372 29.3037 4.31804ZM27.2348 3.28008L26.8252 3.6907L26.2975 3.16176C26.6174 3.17503 26.9307 3.21374 27.2348 3.28008ZM25.5466 3.17872L26.4409 4.07551L24.9769 5.54362L23.8112 4.37628L24.9222 3.26276C25.1314 3.22406 25.3399 3.19641 25.5466 3.17872ZM23.8708 3.54695L23.4281 3.99147L23.2394 3.80238C23.4459 3.70773 23.6566 3.6225 23.8708 3.54695ZM22.7286 4.05966L23.0434 4.37555L21.5758 5.84661L21.0312 5.29924C21.5426 4.81605 22.113 4.39955 22.7286 4.05966ZM20.6469 5.68479L21.1926 6.23179L19.7253 7.70211L19.4102 7.38586C19.7494 6.76895 20.1649 6.19741 20.6469 5.68479ZM19.1531 7.8982L19.3414 8.08729L18.8979 8.53182C18.9722 8.31877 19.0568 8.10793 19.1531 7.8982ZM18.6144 9.58452L19.7253 8.47137L20.8903 9.63908L19.426 11.1065L18.5302 10.2089C18.5482 10.0025 18.5758 9.79389 18.6144 9.58452ZM19.0413 11.4924L18.6317 11.903C18.565 11.5939 18.5256 11.2795 18.514 10.9634L19.0413 11.4924ZM19.1337 14.6675C18.7314 14.2643 18.1834 13.4693 18.0105 13.8748C18.262 14.3905 18.5306 14.6641 18.9472 15.0817C19.3642 15.4997 19.8426 15.8263 20.3582 16.0788C20.5758 15.5311 19.5353 15.07 19.1337 14.6675ZM20.0508 14.3622L20.9775 13.433L22.145 14.6037L21.5217 15.227C20.9807 15.0357 20.4814 14.7422 20.0508 14.3622ZM22.1186 15.3987L22.5286 14.9878L23.0566 15.5174C22.7411 15.5056 22.4272 15.4659 22.1186 15.3987ZM23.8079 15.5005L22.9121 14.6026L24.3764 13.1348L25.5422 14.3022L24.4309 15.4168C24.2247 15.4549 24.0168 15.4828 23.8079 15.5005ZM25.4819 15.1326L25.925 14.6885L26.114 14.8772C25.9047 14.9726 25.694 15.0578 25.4819 15.1326ZM26.6262 14.6184L26.3111 14.3022L27.778 12.8322L28.3233 13.3788C27.8121 13.8621 27.2418 14.2786 26.6262 14.6184ZM28.7073 12.994L28.1615 12.4474L29.6284 10.9767L29.9443 11.2926C29.6049 11.9096 29.1893 12.4812 28.7073 12.994ZM30.201 10.7806L30.0123 10.5919L30.4555 10.1477C30.3804 10.3625 30.2955 10.5737 30.201 10.7806ZM30.7393 9.09319L29.6284 10.2071L28.4642 9.03863L29.9285 7.57089L30.8236 8.46879C30.8057 8.67817 30.7776 8.88656 30.7393 9.09319Z" fill="#C6FF3E"/>
<path d="M1.5948 3.59707C4.11341 1.07294 8.72039 1.59671 11.8833 4.7681C13.737 6.62582 14.6766 8.97782 14.6369 11.1171C14.7815 13.3368 15.1705 15.4813 16.178 16.7787C16.2301 16.8458 16.3289 16.8497 16.3888 16.7896C16.4454 16.7328 16.5374 16.7327 16.594 16.7895L20.6327 20.8373C21.1252 21.331 21.1254 22.1301 20.6331 22.624C20.1389 23.1198 19.336 23.12 18.8415 22.6244L14.7831 18.5571C14.7399 18.5138 14.7396 18.4438 14.7825 18.4002C14.828 18.354 14.8248 18.279 14.7741 18.2386C13.4838 17.212 11.3311 16.8176 9.10173 16.6704C6.96666 16.712 4.61794 15.7706 2.76272 13.9111C-0.402369 10.7397 -0.924553 6.12195 1.5948 3.59707ZM1.16014 7.71464L1.68894 7.18534L1.27855 6.77473C1.21199 7.07992 1.17301 7.39397 1.16014 7.71464ZM1.44954 6.1776L2.07175 6.80164L3.23894 5.63135L2.31298 4.70286C1.93375 5.13458 1.64064 5.63521 1.44954 6.1776ZM12.1907 11.4927L10.7264 10.0243L9.55809 11.1949L11.0231 12.6627L12.1907 11.4927ZM11.4056 13.0482L12.3334 13.9771C12.713 13.5452 13.0062 13.0442 13.1968 12.5012L12.5742 11.8779L11.4056 13.0482ZM6.63901 5.92843L5.17543 4.46069L4.00787 5.63172L5.47256 7.09983L6.63901 5.92843ZM4.305 9.03863L5.77042 10.5101L6.93945 9.34015L5.47256 7.86908L4.305 9.03863ZM5.8561 7.48427L7.323 8.9546L8.49056 7.78431L7.02366 6.31362L5.8561 7.48427ZM7.70691 9.34015L9.17417 10.8105L10.3425 9.63944L8.87484 8.16912L7.70691 9.34015ZM8.87484 7.3995L10.0395 6.23179L8.57256 4.7611L7.40868 5.92843L8.87484 7.3995ZM9.25838 7.78468L10.7264 9.25463L11.8906 8.08692L10.4245 6.61586L9.25838 7.78468ZM9.17417 11.5805L8.00698 12.75L9.4713 14.2185L10.6381 13.0475L9.17417 11.5805ZM8.78916 11.1949L7.323 9.72459L6.15544 10.8949L7.62344 12.3656L8.78916 11.1949ZM5.77042 11.2793L4.60765 12.4474L6.07491 13.9177L7.24026 12.75L5.77042 11.2793ZM5.38761 10.8945L3.92072 9.42419L2.75537 10.5915L4.22226 12.0622L5.38761 10.8945ZM5.08827 7.48464L3.62322 6.01616L2.45603 7.18571L3.91925 8.65419L5.08827 7.48464ZM2.69653 4.31804L3.62322 5.2469L4.79188 4.07588L4.17004 3.45258C3.62788 3.64334 3.12756 3.9372 2.69653 4.31804ZM4.7654 3.28008L5.17506 3.6907L5.70276 3.16176C5.38283 3.17503 5.06952 3.21374 4.7654 3.28008ZM6.45367 3.17872L5.55934 4.07551L7.02329 5.54362L8.18901 4.37628L7.07809 3.26276C6.86885 3.22406 6.66034 3.19641 6.45367 3.17872ZM8.12944 3.54695L8.57219 3.99147L8.76084 3.80238C8.55432 3.70773 8.34364 3.6225 8.12944 3.54695ZM9.27162 4.05966L8.95684 4.37555L10.4245 5.84661L10.9691 5.29924C10.4576 4.81605 9.88727 4.39955 9.27162 4.05966ZM11.3534 5.68479L10.8076 6.23179L12.2749 7.70211L12.5901 7.38586C12.2509 6.76895 11.8353 6.19741 11.3534 5.68479ZM12.8471 7.8982L12.6588 8.08729L13.1023 8.53182C13.028 8.31877 12.9435 8.10793 12.8471 7.8982ZM13.3858 9.58452L12.2749 8.47137L11.1099 9.63908L12.5742 11.1065L13.47 10.2089C13.452 10.0025 13.4244 9.79389 13.3858 9.58452ZM12.9589 11.4924L13.3686 11.903C13.4353 11.5939 13.4747 11.2795 13.4862 10.9634L12.9589 11.4924ZM12.8665 14.6675C13.2688 14.2643 13.8168 13.4693 13.9898 13.8748C13.7383 14.3905 13.4697 14.6641 13.053 15.0817C12.636 15.4997 12.1576 15.8263 11.642 16.0788C11.4245 15.5311 12.4649 15.07 12.8665 14.6675ZM11.9495 14.3622L11.0228 13.433L9.85522 14.6037L10.4785 15.227C11.0195 15.0357 11.5189 14.7422 11.9495 14.3622ZM9.88169 15.3987L9.47167 14.9878L8.9436 15.5174C9.25917 15.5056 9.57309 15.4659 9.88169 15.3987ZM8.19232 15.5005L9.08812 14.6026L7.6238 13.1348L6.45809 14.3022L7.56938 15.4168C7.77554 15.4549 7.98344 15.4828 8.19232 15.5005ZM6.51839 15.1326L6.07527 14.6885L5.88626 14.8772C6.0955 14.9726 6.30621 15.0578 6.51839 15.1326ZM5.374 14.6184L5.68915 14.3022L4.22226 12.8322L3.67691 13.3788C4.18817 13.8621 4.7584 14.2786 5.374 14.6184ZM3.29299 12.994L3.83871 12.4474L2.37182 10.9767L2.05594 11.2926C2.39536 11.9096 2.81098 12.4812 3.29299 12.994ZM1.79926 10.7806L1.98791 10.5919L1.54479 10.1477C1.61988 10.3625 1.70479 10.5737 1.79926 10.7806ZM1.26089 9.09319L2.37182 10.2071L3.53607 9.03863L2.07175 7.57089L1.17668 8.46879C1.19457 8.67817 1.22267 8.88656 1.26089 9.09319Z" fill="#C6FF3E"/>
<path fill-rule="evenodd" clip-rule="evenodd" d="M14.1903 1.156C14.5011 0.498219 15.1566 0.0352345 15.9237 0.000150376C15.4898 0.643386 14.8155 1.01149 14.1903 1.156ZM14.0764 1.45752C14.0251 1.63546 13.9977 1.82349 13.9977 2.01793C13.9977 2.69914 14.3349 3.30159 14.8515 3.66746C15.407 2.67213 15.5199 1.74666 15.2614 1.00478C14.8795 1.24341 14.4643 1.39021 14.0764 1.45752ZM15.0848 3.81005C15.3638 3.95558 15.6811 4.03785 16.0176 4.03785C16.533 4.03785 17.0034 3.84478 17.3603 3.52701C16.9008 3.28108 16.5818 3.03418 16.3809 2.78987C16.0908 2.43715 16.0435 2.08272 16.187 1.76498C16.324 1.4616 16.6238 1.21751 16.9715 1.03985C17.1719 0.937386 17.3944 0.853842 17.6232 0.792223C17.2967 0.365059 16.8035 0.0720435 16.2407 0.0101959C16.0398 0.350583 15.781 0.626704 15.4939 0.844542C15.8195 1.69634 15.6879 2.73336 15.0848 3.81005ZM17.782 1.03383C17.5398 1.09223 17.3037 1.17707 17.0959 1.28328C16.7729 1.44836 16.5364 1.65556 16.4361 1.87752C16.3423 2.08511 16.3567 2.33005 16.592 2.61623C16.7728 2.83602 17.0811 3.07498 17.5594 3.32291C17.8577 2.9709 18.0375 2.51542 18.0375 2.01793C18.0375 1.66064 17.9447 1.32501 17.782 1.03383Z" fill="#C6FF3E"/>
</svg>
