<svg width="31" height="19" viewBox="0 0 31 19" fill="none" xmlns="http://www.w3.org/2000/svg">
<path fill-rule="evenodd" clip-rule="evenodd" d="M13.426 8.40326C14.0593 7.02508 15.3956 6.05506 16.9594 5.98195C16.075 7.32968 14.7005 8.10077 13.426 8.40326ZM13.1943 9.03457C13.0899 9.40695 13.034 9.80041 13.034 10.2073C13.034 11.6341 13.7214 12.8959 14.7743 13.6619C15.906 11.5778 16.1362 9.63986 15.6094 8.08637C14.8311 8.58624 13.9848 8.89369 13.1943 9.03457ZM15.2498 13.9604C15.8181 14.2649 16.4643 14.4371 17.1496 14.4371C18.1997 14.4371 19.1579 14.0329 19.8851 13.3676C18.9493 12.8527 18.2996 12.3359 17.8903 11.8244C17.2994 11.0858 17.2029 10.3436 17.4953 9.67826C17.7745 9.04298 18.3854 8.53184 19.0936 8.15982C19.5021 7.94526 19.9554 7.77032 20.4216 7.64129C19.7564 6.74666 18.7516 6.13289 17.6051 6.00313C17.1957 6.71617 16.6683 7.29455 16.0831 7.75083C16.7465 9.53446 16.4785 11.7059 15.2498 13.9604ZM20.7449 8.14724C20.2515 8.26955 19.7705 8.44719 19.3471 8.66956C18.689 9.01525 18.2072 9.44914 18.0029 9.91392C17.8118 10.3486 17.8411 10.8615 18.3205 11.4608C18.6887 11.9209 19.3167 12.4212 20.2909 12.9402C20.8986 12.2031 21.2651 11.2492 21.2651 10.2073C21.2651 9.4594 21.0763 8.75684 20.7449 8.14724Z" fill="#C6FF3E"/>
<path d="M19.0439 16.5211C19.9111 17.621 21.0822 18.374 22.5571 18.7802C23.1913 18.9548 23.8605 19.0254 24.5648 18.9919C25.2799 18.9776 25.9489 18.8369 26.5718 18.5698C27.2095 18.3068 27.7716 17.9092 28.2581 17.377C28.7594 16.8489 29.1206 16.1605 29.342 15.3116C29.6897 13.9777 29.5976 12.815 29.0657 11.8237C28.5337 10.8324 27.6579 9.91697 26.4383 9.07745L25.5538 8.46832C24.7371 7.90223 24.1932 7.41128 23.9223 6.99547C23.6513 6.57967 23.5691 6.16713 23.6758 5.75785C23.7786 5.36373 24.0312 5.09211 24.4337 4.943C24.8548 4.78279 25.3604 4.78391 25.9503 4.94638C26.5108 5.10072 26.9285 5.37822 27.2034 5.77887C27.4823 6.16436 27.6397 6.62198 27.6754 7.15172L31 6.67817C30.97 6.2475 30.885 5.78542 30.7449 5.29193C30.6196 4.80251 30.3939 4.3342 30.0679 3.88699C29.7458 3.42462 29.3174 3.00609 28.7828 2.6314C28.2521 2.24156 27.5738 1.93291 26.7479 1.70546C25.9662 1.49019 25.2192 1.41447 24.507 1.47829C23.7948 1.54211 23.1548 1.72328 22.5869 2.0218C22.023 2.30517 21.5406 2.70033 21.1397 3.2073C20.7388 3.71427 20.4534 4.29366 20.2834 4.94547C20.1377 5.50445 20.0977 6.04422 20.1635 6.56479C20.4166 6.78617 20.6462 7.03484 20.8481 7.3063L21.0037 7.51556L21.0149 7.51278L21.0509 7.57903L21.3342 7.96008L21.2666 7.97877C21.5325 8.49666 21.7086 9.0707 21.7737 9.67834C22.0992 9.99468 22.4241 10.268 22.7482 10.4983L23.6268 11.1301C24.1319 11.4967 24.5432 11.8293 24.8605 12.1279C25.1818 12.4113 25.4274 12.682 25.5973 12.94C25.7711 13.1828 25.8726 13.4301 25.9018 13.6819C25.9497 13.9225 25.9401 14.1717 25.8729 14.4294C25.8057 14.6871 25.6874 14.8982 25.5181 15.0628C25.3487 15.2273 25.1504 15.3514 24.9231 15.4351C24.7145 15.5076 24.4769 15.5396 24.2103 15.5312C23.9585 15.5269 23.6999 15.4881 23.4344 15.415C22.6232 15.1916 22.0616 14.7689 21.7496 14.1468C21.4872 13.6239 21.3386 13.0289 21.3038 12.3619C21.1524 12.6696 20.9697 12.9582 20.76 13.2231L20.8163 13.2542L20.4877 13.5548L20.4237 13.6325L20.4105 13.6254L20.242 13.7797C19.6576 14.3144 18.9404 14.7001 18.148 14.8783C18.367 15.4782 18.6657 16.0258 19.0439 16.5211Z" fill="#C6FF3E"/>
<path d="M17.8536 13.8143C18.2269 13.7378 18.5791 13.6017 18.9007 13.4158C18.4162 13.0977 18.017 12.771 17.7013 12.4346C17.7171 12.9175 17.7678 13.3774 17.8536 13.8143Z" fill="#C6FF3E"/>
<path d="M20.2178 12.1018L19.9775 12.1301C20.0302 12.1625 20.0844 12.1952 20.1403 12.2281C20.167 12.1866 20.1928 12.1445 20.2178 12.1018Z" fill="#C6FF3E"/>
<path d="M3.71675 3.11937L0 4.14291L9.86381 18.8755L13.4921 17.8763L13.864 13.5925C13.0202 12.7274 12.4972 11.5301 12.4972 10.2073C12.4972 9.84929 12.5356 9.49992 12.6085 9.16353L12.4677 9.19695L12.9406 8.16767C13.2907 7.40579 13.8311 6.75393 14.499 6.27719L15.044 0L11.3272 1.02354L10.5213 10.8473L10.4725 13.2977L10.2513 13.3587L9.06118 11.2494L3.71675 3.11937Z" fill="#C6FF3E"/>
<path d="M14.2331 9.34009C14.0329 9.40528 13.8332 9.46062 13.6356 9.50646C13.5931 9.73301 13.5708 9.96726 13.5708 10.2073C13.5708 10.844 13.7281 11.443 14.0052 11.9654L14.2331 9.34009Z" fill="#C6FF3E"/>
</svg>
