<svg width="24" height="22" viewBox="0 0 24 22" fill="none" xmlns="http://www.w3.org/2000/svg">
<path d="M2.4 22C1.74 22 1.1752 21.7609 0.7056 21.2826C0.2352 20.8034 0 20.2278 0 19.5556V4.88889C0 4.21667 0.2352 3.64141 0.7056 3.16311C1.1752 2.684 1.74 2.44444 2.4 2.44444H6V0H8.4V2.44444H15.6V0H18V2.44444H21.6C22.26 2.44444 22.8252 2.684 23.2956 3.16311C23.7652 3.64141 24 4.21667 24 4.88889V19.5556C24 20.2278 23.7652 20.8034 23.2956 21.2826C22.8252 21.7609 22.26 22 21.6 22H2.4ZM11.1 19.5556H12.9V17.7222H11.1V19.5556ZM16.2 15.8889H19.2C19.54 15.8889 19.8248 15.7716 20.0544 15.5369C20.2848 15.303 20.4 15.013 20.4 14.6667V9.77778C20.4 9.43148 20.2848 9.141 20.0544 8.90633C19.8248 8.67248 19.54 8.55556 19.2 8.55556H16.2C15.86 8.55556 15.5752 8.67248 15.3456 8.90633C15.1152 9.141 15 9.43148 15 9.77778V14.6667C15 15.013 15.1152 15.303 15.3456 15.5369C15.5752 15.7716 15.86 15.8889 16.2 15.8889ZM3.6 15.8889H9V14.0556H5.4V12.8333H7.8C8.14 12.8333 8.4252 12.716 8.6556 12.4813C8.8852 12.2475 9 11.9574 9 11.6111V9.77778C9 9.43148 8.8852 9.141 8.6556 8.90633C8.4252 8.67248 8.14 8.55556 7.8 8.55556H3.6V10.3889H7.2V11.6111H4.8C4.46 11.6111 4.1748 11.728 3.9444 11.9619C3.7148 12.1966 3.6 12.487 3.6 12.8333V15.8889ZM11.1 15.2778H12.9V13.4444H11.1V15.2778ZM16.8 14.0556V10.3889H18.6V14.0556H16.8ZM11.1 11H12.9V9.16667H11.1V11ZM11.1 6.72222H12.9V4.88889H11.1V6.72222Z" fill="#C6FF3E"/>
</svg>
