<svg width="15" height="22" viewBox="0 0 15 22" fill="none" xmlns="http://www.w3.org/2000/svg">
<path d="M6.10714 18.2727H8.89286C9.01667 18.2727 9.125 18.2273 9.21786 18.1364C9.31071 18.0455 9.35714 17.9394 9.35714 17.8182C9.35714 17.697 9.31071 17.5909 9.21786 17.5C9.125 17.4091 9.01667 17.3636 8.89286 17.3636H6.10714C5.98333 17.3636 5.875 17.4091 5.78214 17.5C5.68929 17.5909 5.64286 17.697 5.64286 17.8182C5.64286 17.9394 5.68929 18.0455 5.78214 18.1364C5.875 18.2273 5.98333 18.2727 6.10714 18.2727ZM2.85714 21C2.34643 21 1.90938 20.8221 1.546 20.4664C1.182 20.11 1 19.6818 1 19.1818V2.81818C1 2.31818 1.182 1.89 1.546 1.53364C1.90938 1.17788 2.34643 1 2.85714 1H12.1429C12.6536 1 13.0909 1.17788 13.4549 1.53364C13.8183 1.89 14 2.31818 14 2.81818V19.1818C14 19.6818 13.8183 20.11 13.4549 20.4664C13.0909 20.8221 12.6536 21 12.1429 21H2.85714ZM2.85714 14.6364H12.1429V5.54545H2.85714V14.6364Z" stroke="#83878C" stroke-width="1.5"/>
</svg>
