<svg width="22" height="21" viewBox="0 0 22 21" fill="none" xmlns="http://www.w3.org/2000/svg">
<path d="M19.4108 1.59771C16.8918 -0.926873 12.284 -0.403009 9.12053 2.76894C7.26645 4.62698 6.32672 6.97939 6.36645 9.11909C6.22178 11.3391 5.83273 13.484 4.82509 14.7816C4.77298 14.8487 4.67415 14.8527 4.61419 14.7925C4.5576 14.7357 4.46562 14.7356 4.40898 14.7924L0.369595 18.841C-0.123041 19.3347 -0.123221 20.134 0.369193 20.628C0.863487 21.1238 1.6665 21.124 2.16104 20.6284L6.22023 16.5603C6.26342 16.517 6.26366 16.447 6.22077 16.4035C6.17532 16.3573 6.17852 16.2822 6.22923 16.2418C7.51977 15.2151 9.67278 14.8205 11.9026 14.6733C14.038 14.715 16.3871 13.7734 18.2427 11.9135C21.4083 8.74158 21.9306 4.12302 19.4108 1.59771ZM19.8455 5.716L19.3167 5.1866L19.7271 4.77592C19.7937 5.08117 19.8327 5.39526 19.8455 5.716ZM19.5561 4.17869L18.9338 4.80283L17.7664 3.63234L18.6925 2.70368C19.0718 3.13548 19.365 3.6362 19.5561 4.17869ZM8.81305 9.49476L10.2776 8.02602L11.4461 9.19688L9.98081 10.6649L8.81305 9.49476ZM9.5983 11.0505L8.67034 11.9795C8.29062 11.5476 7.99742 11.0464 7.80675 10.5034L8.42943 9.88L9.5983 11.0505ZM14.3657 3.92948L15.8295 2.46147L16.9973 3.6327L15.5324 5.10107L14.3657 3.92948ZM16.7001 7.04022L15.2344 8.51191L14.0652 7.34178L15.5324 5.87047L16.7001 7.04022ZM15.1488 5.48559L13.6816 6.95617L12.5138 5.78567L13.981 4.31472L15.1488 5.48559ZM13.2976 7.34178L11.8301 8.81237L10.6616 7.64114L12.1295 6.17056L13.2976 7.34178ZM12.1295 5.40079L10.9647 4.23288L12.4318 2.76193L13.5959 3.92948L12.1295 5.40079ZM11.7459 5.78604L10.2776 7.25626L9.11317 6.08834L10.5796 4.61702L11.7459 5.78604ZM11.8301 9.5825L12.9975 10.7523L11.5329 12.221L10.3659 11.0498L11.8301 9.5825ZM12.2152 9.19688L13.6816 7.7263L14.8494 8.89679L13.3811 10.3677L12.2152 9.19688ZM15.2344 9.2813L16.3974 10.4496L14.9299 11.9202L13.7644 10.7523L15.2344 9.2813ZM15.6173 8.89642L17.0845 7.42584L18.25 8.59338L16.7829 10.0643L15.6173 8.89642ZM15.9167 5.48595L17.382 4.01722L18.5494 5.18697L17.0859 6.65571L15.9167 5.48595ZM18.3089 2.3188L17.382 3.24782L16.2132 2.07659L16.8351 1.45319C17.3774 1.64397 17.8778 1.93789 18.3089 2.3188ZM16.2396 1.28066L15.8299 1.69134L15.3021 1.16232C15.6221 1.17559 15.9355 1.2143 16.2396 1.28066ZM14.5511 1.17928L15.4456 2.07623L13.9814 3.54459L12.8154 2.37705L13.9266 1.26333C14.1358 1.22462 14.3444 1.19697 14.5511 1.17928ZM12.875 1.54757L12.4322 1.99217L12.2435 1.80305C12.4501 1.70838 12.6608 1.62314 12.875 1.54757ZM11.7326 2.06037L12.0475 2.37631L10.5796 3.84763L10.0349 3.30017C10.5464 2.81689 11.1169 2.40033 11.7326 2.06037ZM9.65052 3.68579L10.1963 4.23288L8.72882 5.70346L8.41362 5.38715C8.75288 4.77014 9.16846 4.1985 9.65052 3.68579ZM8.15652 5.89959L8.34484 6.08871L7.90127 6.53332C7.97557 6.32023 8.06016 6.10936 8.15652 5.89959ZM7.6177 7.58621L8.72882 6.47286L9.89401 7.64077L8.42943 9.1084L7.53347 8.21072C7.55149 8.00427 7.57908 7.79561 7.6177 7.58621ZM8.04471 9.49439L7.63498 9.90507C7.56824 9.59592 7.52885 9.28146 7.51729 8.96536L8.04471 9.49439ZM8.13711 12.6701C7.73474 12.2668 7.18664 11.4717 7.01364 11.8772C7.26522 12.393 7.53384 12.6667 7.95056 13.0844C8.36764 13.5025 8.84615 13.8291 9.3618 14.0816C9.57939 13.5338 8.53875 13.0727 8.13711 12.6701ZM9.05432 12.3648L9.98118 11.4354L11.1489 12.6062L10.5255 13.2296C9.98441 13.0384 9.48498 12.7448 9.05432 12.3648ZM11.1225 13.4014L11.5326 12.9904L12.0607 13.5201C11.7451 13.5083 11.4311 13.4686 11.1225 13.4014ZM12.8121 13.5032L11.9162 12.6051L13.3807 11.1371L14.5467 12.3047L13.4352 13.4195C13.229 13.4576 13.021 13.4855 12.8121 13.5032ZM14.4863 13.1353L14.9295 12.691L15.1186 12.8798C14.9093 12.9753 14.6986 13.0604 14.4863 13.1353ZM15.6309 12.621L15.3157 12.3047L16.7829 10.8345L17.3283 11.3812C16.817 11.8646 16.2466 12.2811 15.6309 12.621ZM17.7123 10.9963L17.1665 10.4496L18.6336 8.97863L18.9496 9.29457C18.6101 9.91166 18.1944 10.4834 17.7123 10.9963ZM19.2063 8.78251L19.0176 8.59375L19.4608 8.14952C19.3857 8.36432 19.3008 8.57553 19.2063 8.78251ZM19.7448 7.09478L18.6336 8.20887L17.4692 7.04022L18.9338 5.57222L19.829 6.47027C19.8111 6.6797 19.783 6.88812 19.7448 7.09478Z" fill="#008F70"/>
</svg>
