<svg width="10" height="12" viewBox="0 0 10 12" fill="none" xmlns="http://www.w3.org/2000/svg">
<path d="M8.33333 12C7.87037 12 7.47685 11.825 7.15278 11.475C6.8287 11.125 6.66667 10.7 6.66667 10.2C6.66667 10.13 6.6713 10.0574 6.68056 9.9822C6.68982 9.9074 6.7037 9.84 6.72222 9.78L2.80556 7.32C2.64815 7.47 2.47222 7.5874 2.27778 7.6722C2.08333 7.7574 1.87963 7.8 1.66667 7.8C1.2037 7.8 0.810185 7.625 0.486111 7.275C0.162037 6.925 0 6.5 0 6C0 5.5 0.162037 5.075 0.486111 4.725C0.810185 4.375 1.2037 4.2 1.66667 4.2C1.87963 4.2 2.08333 4.2424 2.27778 4.3272C2.47222 4.4124 2.64815 4.53 2.80556 4.68L6.72222 2.22C6.7037 2.16 6.68982 2.0926 6.68056 2.0178C6.6713 1.9426 6.66667 1.87 6.66667 1.8C6.66667 1.3 6.8287 0.875 7.15278 0.525C7.47685 0.175 7.87037 0 8.33333 0C8.7963 0 9.18982 0.175 9.51389 0.525C9.83796 0.875 10 1.3 10 1.8C10 2.3 9.83796 2.725 9.51389 3.075C9.18982 3.425 8.7963 3.6 8.33333 3.6C8.12037 3.6 7.91667 3.5574 7.72222 3.4722C7.52778 3.3874 7.35185 3.27 7.19444 3.12L3.27778 5.58C3.2963 5.64 3.31019 5.7074 3.31944 5.7822C3.3287 5.8574 3.33333 5.93 3.33333 6C3.33333 6.07 3.3287 6.1424 3.31944 6.2172C3.31019 6.2924 3.2963 6.36 3.27778 6.42L7.19444 8.88C7.35185 8.73 7.52778 8.6124 7.72222 8.5272C7.91667 8.4424 8.12037 8.4 8.33333 8.4C8.7963 8.4 9.18982 8.575 9.51389 8.925C9.83796 9.275 10 9.7 10 10.2C10 10.7 9.83796 11.125 9.51389 11.475C9.18982 11.825 8.7963 12 8.33333 12Z" fill="#83878C"/>
</svg>
