<svg width="19" height="18" viewBox="0 0 19 18" fill="none" xmlns="http://www.w3.org/2000/svg">
<path d="M8.76697 0.188205C8.86774 -0.0627356 9.22298 -0.0627348 9.32376 0.188206L11.5614 5.7605C11.6043 5.86736 11.7046 5.94023 11.8195 5.94802L17.8106 6.35424C18.0804 6.37254 18.1902 6.71039 17.9826 6.88378L13.3745 10.7339C13.2862 10.8077 13.2479 10.9256 13.276 11.0373L14.741 16.8606C14.8069 17.1229 14.5195 17.3317 14.2905 17.1879L9.20488 13.9951C9.10735 13.9339 8.98338 13.9339 8.88585 13.9951L3.80022 17.1879C3.57119 17.3317 3.2838 17.1229 3.34977 16.8606L4.81476 11.0373C4.84286 10.9256 4.80455 10.8077 4.71618 10.7339L0.108095 6.88377C-0.0994244 6.71039 0.0103522 6.37254 0.280151 6.35424L6.2712 5.94802C6.38609 5.94023 6.48638 5.86736 6.52929 5.7605L8.76697 0.188205Z" fill="#83878C"/>
</svg>
