<svg width="16" height="20" viewBox="0 0 16 20" fill="none" xmlns="http://www.w3.org/2000/svg">
<path fill-rule="evenodd" clip-rule="evenodd" d="M1 0H15C15.2652 0 15.5196 0.105357 15.7071 0.292893C15.8946 0.48043 16 0.734784 16 1V19C16 19.2652 15.8946 19.5196 15.7071 19.7071C15.5196 19.8946 15.2652 20 15 20H1C0.734784 20 0.48043 19.8946 0.292893 19.7071C0.105357 19.5196 0 19.2652 0 19V1C0 0.734784 0.105357 0.48043 0.292893 0.292893C0.48043 0.105357 0.734784 0 1 0ZM11.5303 4.53033C11.8232 4.23744 11.8232 3.76256 11.5303 3.46967C11.2374 3.17678 10.7626 3.17678 10.4697 3.46967L7 6.93934L5.53033 5.46967C5.23744 5.17678 4.76256 5.17678 4.46967 5.46967C4.17678 5.76256 4.17678 6.23744 4.46967 6.53033L6.46967 8.53033C6.76256 8.82322 7.23744 8.82322 7.53033 8.53033L11.5303 4.53033ZM4.25 12C4.25 12.4142 4.58579 12.75 5 12.75H12C12.4142 12.75 12.75 12.4142 12.75 12C12.75 11.5858 12.4142 11.25 12 11.25H5C4.58579 11.25 4.25 11.5858 4.25 12ZM5 14.25C4.58579 14.25 4.25 14.5858 4.25 15C4.25 15.4142 4.58579 15.75 5 15.75H8.5C8.91421 15.75 9.25 15.4142 9.25 15C9.25 14.5858 8.91421 14.25 8.5 14.25H5Z" fill="#83878C"/>
</svg>
