<svg width="20" height="20" viewBox="0 0 20 20" fill="none" xmlns="http://www.w3.org/2000/svg">
<path d="M10.4485 0.351472C9.9799 -0.117157 9.2201 -0.117157 8.75147 0.351472L0.351472 8.75147C-0.117157 9.2201 -0.117157 9.9799 0.351472 10.4485C0.820101 10.9172 1.5799 10.9172 2.04853 10.4485L2.4 10.0971V18C2.4 18.6627 2.93726 19.2 3.6 19.2H6C6.66274 19.2 7.2 18.6627 7.2 18V15.6C7.2 14.9373 7.73726 14.4 8.4 14.4H10.8C11.4627 14.4 12 14.9373 12 15.6V18C12 18.6627 12.5373 19.2 13.2 19.2H15.6C16.2627 19.2 16.8 18.6627 16.8 18V10.0971L17.1515 10.4485C17.6201 10.9172 18.3799 10.9172 18.8485 10.4485C19.3172 9.9799 19.3172 9.2201 18.8485 8.75147L10.4485 0.351472Z" fill="#83878C"/>
</svg>
