<svg width="18" height="19" viewBox="0 0 18 19" fill="none" xmlns="http://www.w3.org/2000/svg">
<path d="M13 1.00268e-07C13.5046 -0.000159579 13.9906 0.190406 14.3605 0.533497C14.7305 0.876588 14.9572 1.34684 14.995 1.85L15 2V7H16.5C16.8729 7.00002 17.2324 7.13892 17.5084 7.38962C17.7844 7.64032 17.9572 7.98484 17.993 8.356L18 8.5V16C18 16.7652 17.7077 17.5015 17.1827 18.0583C16.6578 18.615 15.9399 18.9501 15.176 18.995L15 19H2C1.49542 19.0002 1.00943 18.8096 0.639452 18.4665C0.269471 18.1234 0.0428434 17.6532 0.00500021 17.15L1.00268e-07 17V2C-0.000159579 1.49542 0.190406 1.00943 0.533497 0.639452C0.876588 0.269471 1.34684 0.0428434 1.85 0.00500021L2 1.00268e-07H13ZM16 9H15V17C15.2652 17 15.5196 16.8946 15.7071 16.7071C15.8946 16.5196 16 16.2652 16 16V9ZM8 10H5C4.74512 10.0003 4.49997 10.0979 4.31463 10.2728C4.1293 10.4478 4.01777 10.687 4.00283 10.9414C3.98789 11.1958 4.07067 11.4464 4.23426 11.6418C4.39786 11.8373 4.6299 11.9629 4.883 11.993L5 12H8C8.25488 11.9997 8.50003 11.9021 8.68537 11.7272C8.8707 11.5522 8.98223 11.313 8.99717 11.0586C9.01211 10.8042 8.92933 10.5536 8.76574 10.3582C8.60215 10.1627 8.3701 10.0371 8.117 10.007L8 10ZM10 5H5C4.73478 5 4.48043 5.10536 4.29289 5.29289C4.10536 5.48043 4 5.73478 4 6C4 6.26522 4.10536 6.51957 4.29289 6.70711C4.48043 6.89464 4.73478 7 5 7H10C10.2652 7 10.5196 6.89464 10.7071 6.70711C10.8946 6.51957 11 6.26522 11 6C11 5.73478 10.8946 5.48043 10.7071 5.29289C10.5196 5.10536 10.2652 5 10 5Z" fill="#83878C"/>
</svg>
