<svg width="25" height="25" viewBox="0 0 25 25" fill="none" xmlns="http://www.w3.org/2000/svg">
<path d="M23.1024 1.90107C20.105 -1.10287 14.6223 -0.479531 10.8582 3.2947C8.65205 5.50554 7.53389 8.30463 7.58115 10.8506C7.40902 13.4922 6.9461 16.0444 5.74713 17.5883C5.68512 17.6682 5.56753 17.6729 5.49619 17.6013C5.42885 17.5337 5.31941 17.5336 5.25201 17.6012L0.445632 22.4184C-0.140545 23.0059 -0.140759 23.957 0.445154 24.5448C1.0333 25.1348 1.98879 25.135 2.57723 24.5453L7.40718 19.7048C7.45857 19.6533 7.45885 19.57 7.40782 19.5181C7.35373 19.4632 7.35754 19.3738 7.41788 19.3258C8.95346 18.1041 11.5153 17.6346 14.1684 17.4594C16.7094 17.509 19.5045 16.3887 21.7124 14.1756C25.4791 10.4014 26.1006 4.90589 23.1024 1.90107ZM23.6196 6.80134L22.9903 6.17142L23.4787 5.68276C23.5579 6.04597 23.6043 6.41971 23.6196 6.80134ZM23.2752 4.97213L22.5347 5.71478L21.1457 4.32204L22.2476 3.21705C22.699 3.73084 23.0478 4.32663 23.2752 4.97213ZM10.4923 11.2976L12.235 9.54998L13.6253 10.9432L11.8818 12.6899L10.4923 11.2976ZM11.4267 13.1487L10.3225 14.2542C9.87069 13.7402 9.52182 13.1439 9.29494 12.4978L10.0359 11.756L11.4267 13.1487ZM17.0993 4.6756L18.8411 2.92885L20.2306 4.32247L18.4875 6.06966L17.0993 4.6756ZM19.877 8.377L18.133 10.1281L16.7417 8.73583L18.4875 6.98514L19.877 8.377ZM18.031 6.52718L16.2853 8.27699L14.8958 6.88425L16.6415 5.134L18.031 6.52718ZM15.8284 8.73583L14.0822 10.4856L12.6919 9.09202L14.4385 7.34221L15.8284 8.73583ZM14.4385 6.42629L13.0525 5.03661L14.7982 3.28636L16.1833 4.6756L14.4385 6.42629ZM13.982 6.88469L12.235 8.63406L10.8494 7.24439L12.5943 5.4937L13.982 6.88469ZM14.0822 11.402L15.4713 12.7939L13.7286 14.5415L12.34 13.1479L14.0822 11.402ZM14.5404 10.9432L16.2853 9.19335L17.6748 10.5861L15.9277 12.3363L14.5404 10.9432ZM18.133 11.0436L19.5168 12.4337L17.7706 14.1835L16.3838 12.7939L18.133 11.0436ZM18.5886 10.5857L20.3343 8.83584L21.7212 10.2251L19.9754 11.9753L18.5886 10.5857ZM18.9448 6.52762L20.6884 4.78L22.0774 6.17186L20.3361 7.91948L18.9448 6.52762ZM21.7912 2.75909L20.6884 3.86451L19.2975 2.47089L20.0376 1.72912C20.6828 1.95613 21.2782 2.30585 21.7912 2.75909ZM19.3291 1.52383L18.8415 2.01249L18.2135 1.38302C18.5943 1.39881 18.9671 1.44487 19.3291 1.52383ZM17.3199 1.4032L18.3842 2.47045L16.642 4.21764L15.2547 2.8284L16.5768 1.50321C16.8258 1.45715 17.0739 1.42425 17.3199 1.4032ZM15.3256 1.84142L14.7986 2.37044L14.5741 2.14541C14.8199 2.03277 15.0706 1.93133 15.3256 1.84142ZM13.9663 2.45159L14.3409 2.82752L12.5943 4.57821L11.9461 3.9268C12.5548 3.35176 13.2336 2.8561 13.9663 2.45159ZM11.4888 4.38564L12.1383 5.03661L10.3921 6.78643L10.017 6.41006C10.4207 5.67588 10.9152 4.99571 11.4888 4.38564ZM9.71113 7.01979L9.9352 7.24482L9.40741 7.77385C9.49581 7.5203 9.59647 7.26939 9.71113 7.01979ZM9.06999 9.02666L10.3921 7.70191L11.7785 9.09158L10.0359 10.8379L8.96977 9.76975C8.99122 9.5241 9.02404 9.27582 9.06999 9.02666ZM9.57808 11.2972L9.09056 11.7858C9.01114 11.418 8.96427 11.0438 8.95052 10.6677L9.57808 11.2972ZM9.68803 15.0759C9.20926 14.596 8.55709 13.6499 8.35124 14.1324C8.65058 14.7461 8.97021 15.0718 9.46605 15.5688C9.96233 16.0663 10.5317 16.4549 11.1453 16.7554C11.4042 16.1036 10.1659 15.5549 9.68803 15.0759ZM10.7794 14.7126L11.8822 13.6067L13.2717 14.9999L12.5299 15.7417C11.8861 15.5141 11.2918 15.1647 10.7794 14.7126ZM13.2402 15.9461L13.7282 15.457L14.3566 16.0873C13.9811 16.0732 13.6075 16.026 13.2402 15.9461ZM15.2507 16.0671L14.1846 14.9986L15.9273 13.2518L17.3146 14.6411L15.9921 15.9676C15.7467 16.0129 15.4993 16.0461 15.2507 16.0671ZM17.2428 15.6294L17.7702 15.1008L17.9951 15.3254C17.7461 15.439 17.4954 15.5403 17.2428 15.6294ZM18.6048 15.0174L18.2297 14.6411L19.9754 12.8917L20.6245 13.5422C20.016 14.1174 19.3374 14.6131 18.6048 15.0174ZM21.0813 13.0843L20.4319 12.4337L22.1776 10.6835L22.5536 11.0594C22.1496 11.7937 21.655 12.474 21.0813 13.0843ZM22.859 10.4501L22.6345 10.2255L23.1619 9.69693C23.0725 9.95251 22.9714 10.2038 22.859 10.4501ZM23.4997 8.44193L22.1776 9.76755L20.7921 8.377L22.5347 6.63026L23.5999 7.69884C23.5787 7.94802 23.5452 8.19602 23.4997 8.44193Z" fill="#C6FF3E"/>
</svg>
