<svg width="18" height="20" viewBox="0 0 18 20" fill="none" xmlns="http://www.w3.org/2000/svg">
<path d="M1 19V17.875C1 15.7864 1.82969 13.7834 3.30653 12.3065C4.78338 10.8297 6.78642 10 8.875 10V10C10.9636 10 12.9666 10.8297 14.4435 12.3065C15.9203 13.7834 16.75 15.7864 16.75 17.875V19M8.875 10C10.0685 10 11.2131 9.52589 12.057 8.68198C12.9009 7.83807 13.375 6.69347 13.375 5.5C13.375 4.30653 12.9009 3.16193 12.057 2.31802C11.2131 1.47411 10.0685 1 8.875 1C7.68153 1 6.53693 1.47411 5.69302 2.31802C4.84911 3.16193 4.375 4.30653 4.375 5.5C4.375 6.69347 4.84911 7.83807 5.69302 8.68198C6.53693 9.52589 7.68153 10 8.875 10V10Z" stroke="#83878C" stroke-width="1.5" stroke-linecap="round" stroke-linejoin="round"/>
</svg>
