<svg width="21" height="21" viewBox="0 0 21 21" fill="none" xmlns="http://www.w3.org/2000/svg">
<path d="M15.55 11.6525C15.3037 11.5287 14.0875 10.93 13.8587 10.845C13.6312 10.7637 13.465 10.7212 13.3025 10.9687C13.1362 11.215 12.6612 11.7762 12.5187 11.9375C12.3762 12.1037 12.2287 12.1225 11.9812 12C11.735 11.875 10.9362 11.615 9.99124 10.7687C9.25374 10.1125 8.75999 9.29999 8.61249 9.05374C8.46999 8.80624 8.59874 8.67374 8.72249 8.54999C8.83124 8.43999 8.96874 8.25999 9.09249 8.11749C9.21749 7.97499 9.25874 7.86999 9.33999 7.70499C9.42124 7.53749 9.38249 7.39499 9.32124 7.27124C9.25874 7.14749 8.76499 5.92625 8.55624 5.43375C8.35624 4.9475 8.15249 5.015 7.99999 5.00875C7.85749 5 7.69124 5 7.525 5C7.39945 5.00312 7.2759 5.03216 7.16211 5.08529C7.04832 5.13842 6.94674 5.2145 6.86375 5.30875C6.63625 5.55625 6 6.155 6 7.37624C6 8.59749 6.8875 9.77124 7.0125 9.93749C7.135 10.1037 8.75499 12.6025 11.2412 13.6775C11.8287 13.9337 12.2912 14.085 12.6525 14.2C13.2462 14.39 13.7825 14.3612 14.21 14.3C14.685 14.2275 15.6737 13.7 15.8825 13.1212C16.0875 12.5412 16.0875 12.0462 16.025 11.9425C15.9637 11.8375 15.7975 11.7762 15.55 11.6525Z" fill="#83878C"/>
<path d="M20 10C20 14.9706 15.9706 19 11 19C9.36071 19 7.82378 18.5617 6.5 17.796L2.00011 19L3.34003 14.7273C2.49038 13.3535 2 11.734 2 10C2 5.02944 6.02944 1 11 1C15.9706 1 20 5.02944 20 10Z" stroke="#83878C" stroke-width="1.5"/>
</svg>
